<?xml version="1.0" encoding="UTF-8" standalone="no"?>
<!-- Created with Inkscape (http://www.inkscape.org/) -->

<svg
   xmlns:dc="http://purl.org/dc/elements/1.1/"
   xmlns:cc="http://creativecommons.org/ns#"
   xmlns:rdf="http://www.w3.org/1999/02/22-rdf-syntax-ns#"
   xmlns:svg="http://www.w3.org/2000/svg"
   xmlns="http://www.w3.org/2000/svg"
   xmlns:xlink="http://www.w3.org/1999/xlink"
   xmlns:sodipodi="http://sodipodi.sourceforge.net/DTD/sodipodi-0.dtd"
   xmlns:inkscape="http://www.inkscape.org/namespaces/inkscape"
   width="300"
   height="300"
   id="svg3177"
   version="1.1"
   inkscape:version="0.91 r13725"
   sodipodi:docname="MiToBo_logo_PaCeQuant.svg">
  <defs
     id="defs3179">
    <inkscape:perspective
       sodipodi:type="inkscape:persp3d"
       inkscape:vp_x="0 : 526.18109 : 1"
       inkscape:vp_y="0 : 1000 : 0"
       inkscape:vp_z="744.09448 : 526.18109 : 1"
       inkscape:persp3d-origin="372.04724 : 350.78739 : 1"
       id="perspective3185" />
    <inkscape:perspective
       id="perspective3195"
       inkscape:persp3d-origin="0.5 : 0.33333333 : 1"
       inkscape:vp_z="1 : 0.5 : 1"
       inkscape:vp_y="0 : 1000 : 0"
       inkscape:vp_x="0 : 0.5 : 1"
       sodipodi:type="inkscape:persp3d" />
    <linearGradient
       inkscape:collect="always"
       xlink:href="#linearGradient3777"
       id="linearGradient3057"
       gradientUnits="userSpaceOnUse"
       gradientTransform="translate(0,2.7900391e-5)"
       x1="0.057891846"
       y1="912.36212"
       x2="279.94211"
       y2="912.36212" />
    <linearGradient
       id="linearGradient3777">
      <stop
         style="stop-color:#6473ff;stop-opacity:1;"
         offset="0"
         id="stop3779" />
      <stop
         style="stop-color:#ffffff;stop-opacity:0;"
         offset="1"
         id="stop3781" />
    </linearGradient>
    <inkscape:path-effect
       effect="spiro"
       id="path-effect2984"
       is_visible="true" />
    <inkscape:path-effect
       effect="spiro"
       id="path-effect4054"
       is_visible="true" />
    <inkscape:path-effect
       effect="spiro"
       id="path-effect4146"
       is_visible="true" />
    <linearGradient
       inkscape:collect="always"
       xlink:href="#linearGradient3777"
       id="linearGradient3584"
       gradientUnits="userSpaceOnUse"
       gradientTransform="matrix(1.0718718,0,0,1.0718718,-0.06205741,-75.57306)"
       x1="0.057891846"
       y1="912.36212"
       x2="279.94211"
       y2="912.36212" />
    <linearGradient
       inkscape:collect="always"
       xlink:href="#linearGradient3777"
       id="linearGradient4640"
       gradientUnits="userSpaceOnUse"
       gradientTransform="matrix(1.0718718,0,0,1.0718718,-0.06205741,-75.57306)"
       x1="0.057891846"
       y1="912.36212"
       x2="279.94211"
       y2="912.36212" />
    <linearGradient
       inkscape:collect="always"
       xlink:href="#linearGradient3777"
       id="linearGradient5260"
       x1="0"
       y1="149.9166"
       x2="300.16684"
       y2="149.9166"
       gradientUnits="userSpaceOnUse" />
  </defs>
  <sodipodi:namedview
     id="base"
     pagecolor="#ffffff"
     bordercolor="#666666"
     borderopacity="1.0"
     inkscape:pageopacity="0.0"
     inkscape:pageshadow="2"
     inkscape:zoom="2.8284271"
     inkscape:cx="101.10247"
     inkscape:cy="139.82192"
     inkscape:document-units="px"
     inkscape:current-layer="layer3"
     showgrid="false"
     inkscape:window-width="1920"
     inkscape:window-height="1152"
     inkscape:window-x="1920"
     inkscape:window-y="25"
     inkscape:window-maximized="1" />
  <metadata
     id="metadata3182">
    <rdf:RDF>
      <cc:Work
         rdf:about="">
        <dc:format>image/svg+xml</dc:format>
        <dc:type
           rdf:resource="http://purl.org/dc/dcmitype/StillImage" />
        <dc:title />
      </cc:Work>
    </rdf:RDF>
  </metadata>
  <g
     inkscape:groupmode="layer"
     id="layer3"
     inkscape:label="Layer 3"
     style="display:inline">
    <path
       id="rect4444"
       style="fill:url(#linearGradient5260);fill-opacity:1"
       d="m 0,-0.16682869 300.16684,0 0,300.16683869 -300.16684,0 z"
       inkscape:connector-curvature="0"
       inkscape:export-xdpi="300"
       inkscape:export-ydpi="300" />
    <path
       style="fill:none;fill-opacity:1"
       d="M 74.115267,99.31547 C 73.544103,99.177234 72.271311,98.7433 71.28684,98.351173 69.550677,97.65964 69.477536,97.607874 68.852768,96.628501 c -0.990667,-1.552946 -1.212033,-2.07895 -1.212033,-2.879998 0,-0.847747 -0.790891,-4.519278 -1.186475,-5.507941 -0.355972,-0.889657 -1.934215,-2.301201 -3.30381,-2.954849 -2.688419,-1.283065 -5.890711,-1.676511 -12.704755,-1.560961 l -5.085838,0.08624 0.0477,-3.628308 0.0477,-3.62831 3.556519,-2.311832 c 4.586783,-2.981534 5.725196,-3.806616 7.200402,-5.218609 1.376168,-1.317197 1.882613,-2.166961 1.882613,-3.158835 0,-2.344323 -3.340366,-3.64066 -11.711456,-4.545009 l -1.016466,-0.10981 0,-5.997689 c 0,-3.298727 0.04533,-5.997686 0.100732,-5.997686 0.0554,0 0.457357,0.245364 0.893232,0.545255 1.854192,1.275716 4.78492,2.459948 6.087865,2.459948 2.095142,0 3.360437,-1.799699 3.083487,-4.385819 -0.260894,-2.436193 -1.469818,-5.95523 -3.351667,-9.756316 -0.505422,-1.020886 -1.021136,-2.134579 -1.146032,-2.474874 -0.124896,-0.340295 -0.748821,-1.719576 -1.386501,-3.065069 -1.050371,-2.216265 -1.166874,-2.575145 -1.23869,-3.815721 -0.219289,-3.788089 2.267711,-7.043412 6.781755,-8.876881 2.487695,-1.010427 5.064723,-0.864622 6.277444,0.35517 1.08926,1.09561 1.349388,2.044205 2.454347,8.950152 1.248666,7.804099 2.575359,11.831164 4.144173,12.579279 1.513562,0.721767 2.579613,-0.348575 5.574172,-5.5966 3.035784,-5.320272 4.868266,-7.224693 7.030356,-7.306351 0.682185,-0.02576 0.85154,0.04319 1.229203,0.500448 0.853246,1.033087 1.368142,1.960526 1.815645,3.270369 l 0.452964,1.325825 -0.04632,13.933718 c -0.04248,12.77655 -0.07028,13.929003 -0.334819,13.876971 -0.561669,-0.11048 -0.953012,-0.965744 -1.401056,-3.061951 -0.933959,-4.369598 -1.513624,-5.770237 -2.729816,-6.59602 -0.896003,-0.608377 -2.518558,-0.498367 -4.073385,0.276179 -2.292029,1.141788 -6.146537,4.474762 -7.26081,6.278387 -1.574677,2.548862 -2.292017,5.682216 -1.746734,7.629774 0.468223,1.672329 2.069926,2.886908 4.489177,3.404166 1.00733,0.215376 1.939428,0.245921 4.65216,0.15245 3.780584,-0.130261 4.495046,-0.021 5.290301,0.809072 0.374632,0.391031 0.480191,0.673268 0.480191,1.283901 0,1.114596 -0.679321,2.337193 -2.565124,4.616537 -3.321074,4.014136 -4.545929,5.976189 -4.312179,6.907526 0.130192,0.518727 0.928168,0.922119 3.106067,1.570177 1.720555,0.51197 2.744969,1.051887 3.200754,1.686957 0.59615,0.830644 0.871237,4.422444 0.495069,6.464077 -0.439225,2.383874 -1.951336,4.341754 -4.40293,5.700914 -1.472207,0.816187 -1.439727,0.811039 -2.894633,0.458914 z"
       id="path5459"
       inkscape:connector-curvature="0" />
  </g>
  <g
     inkscape:groupmode="layer"
     id="layer2"
     inkscape:label="Layer 2"
     style="display:inline">
    <text
       id="text2816-3"
       y="233.25684"
       x="38.666504"
       style="font-style:normal;font-variant:normal;font-weight:normal;font-stretch:normal;font-size:64px;font-family:Arial;-inkscape-font-specification:Calibri;display:inline;fill:#000080;fill-opacity:1;stroke:none"
       xml:space="preserve"><tspan
         style="font-style:normal;font-variant:normal;font-weight:bold;font-stretch:normal;font-size:50px;font-family:Calibri;-inkscape-font-specification:'Calibri Bold';fill:#000080;fill-opacity:1"
         y="233.25684"
         x="38.666504"
         id="tspan2818-6"
         sodipodi:role="line">PaCeQuant</tspan></text>
    <text
       transform="scale(1.0635122,0.9402807)"
       id="text2854-6-7"
       y="276.41077"
       x="144.83441"
       style="font-style:normal;font-variant:normal;font-weight:bold;font-stretch:normal;font-size:70.4122467px;font-family:Calibri;-inkscape-font-specification:'Calibri Bold';text-align:center;text-anchor:middle;display:inline;fill:#4d4d4d;fill-opacity:1;stroke:none"
       xml:space="preserve"><tspan
         id="tspan3165-5"
         style="font-style:normal;font-variant:normal;font-weight:normal;font-stretch:normal;font-size:22.75875282px;font-family:'Century Gothic';-inkscape-font-specification:'Century Gothic';text-align:center;text-anchor:middle;fill:#4d4d4d;fill-opacity:1"
         y="276.41077"
         x="144.83441"
         sodipodi:role="line"><tspan
           id="tspan2876-3-3"
           style="font-weight:bold;font-size:22.75875282px;-inkscape-font-specification:'Century Gothic Bold';text-align:center;text-anchor:middle;fill:#4d4d4d;fill-opacity:1"><tspan
             style="fill:#000000"
             id="tspan5591">P</tspan><tspan
             id="tspan4732-5"
             style="font-weight:normal;-inkscape-font-specification:'Century Gothic';text-align:center;text-anchor:middle;fill:#4d4d4d;fill-opacity:1"><tspan
   style="font-style:normal;font-variant:normal;font-weight:bold;font-stretch:normal;font-family:'Century Gothic';-inkscape-font-specification:'Century Gothic Bold';fill:#000000;fill-opacity:1"
   id="tspan5579">a</tspan>vement </tspan></tspan><tspan
           id="tspan5086-6-6"
           style="font-size:22.75875282px;text-align:center;text-anchor:middle;fill:#4d4d4d;fill-opacity:1"><tspan
   id="tspan4734-2"
   style="font-weight:bold;-inkscape-font-specification:'Adobe Arabic Bold';text-align:center;text-anchor:middle;fill:#000000;fill-opacity:1">C</tspan><tspan
   style="font-style:normal;font-variant:normal;font-weight:bold;font-stretch:normal;font-family:'Century Gothic';-inkscape-font-specification:'Century Gothic Bold';fill:#000000;fill-opacity:1"
   id="tspan5581">e</tspan>ll Shape</tspan></tspan></text>
    <text
       xml:space="preserve"
       style="font-style:normal;font-variant:normal;font-weight:bold;font-stretch:normal;font-size:71.43165588px;font-family:Calibri;-inkscape-font-specification:'Calibri Bold';text-align:center;text-anchor:middle;display:inline;fill:#000000;fill-opacity:1;stroke:none"
       x="144.75021"
       y="302.74182"
       id="text3772-1"
       transform="scale(1.0635122,0.9402807)"><tspan
         sodipodi:role="line"
         x="144.75021"
         y="302.74182"
         style="font-style:normal;font-variant:normal;font-weight:normal;font-stretch:normal;font-size:23.08824921px;font-family:'Century Gothic';-inkscape-font-specification:'Century Gothic';text-align:center;text-anchor:middle"
         id="tspan3780-2"><tspan
           id="tspan4568-7"
           style="font-weight:bold;-inkscape-font-specification:'Century Gothic Bold';text-align:center;text-anchor:middle">Quant</tspan><tspan
           id="tspan4560-0"
           style="text-align:center;text-anchor:middle;fill:#4d4d4d;fill-opacity:1">ification</tspan></tspan></text>
  </g>
  <g
     inkscape:groupmode="layer"
     id="layer5"
     inkscape:label="Layer 5"
     style="display:inline">
    <path
       id="path5421"
       style="fill:none;fill-opacity:0.75;fill-rule:evenodd;stroke:#000000;stroke-width:1px;stroke-linecap:butt;stroke-linejoin:miter;stroke-opacity:1"
       d="M 57.103516,18.572266 C 53.064488,19.626148 48.04741,22.426895 47.75,28 c -4.95e-4,3.753766 1.621502,4.284747 2.871094,8.275391 10.68094,20.385718 -4.746639,10.862865 -10.555758,10.143762 -10.01249,-0.758609 -19.638763,19.646063 2.202242,15.184363 21.186573,-3.217449 4.616846,10.533308 -0.03884,15.136416 -12.180526,13.017839 17.223416,2.528257 23.509539,11.357724 0.570437,0.855656 1.477527,5.518048 1.365235,5.97461 -0.246184,1.000947 2.03125,4.013672 2.03125,4.013672 1.468213,0.595906 4.182424,1.938152 6.5625,2.078122 4.891916,-2.132256 7.65676,-5.337615 6.037109,-13.208982 -0.916706,-2.566777 -5.675406,-3.327533 -6.550781,-3.558594 -14.521073,-3.832937 1.873242,-6.782049 5.261718,-7.798828 5.979825,-1.794365 0.420591,-7.07366 -3.810546,-6.382812 -14.047276,1.425064 -9.389295,-8.000979 -7.269532,-11.195313 19.516655,-19.377035 5.737339,17.335857 20.919922,-0.96875 3.759862,-3.030921 4.018286,4.806741 3.507813,8.230469 -3.614083,15.33548 7.941595,3.288468 9.189455,-5.953125 0,0 2.00586,-13.351563 0.50586,-14.851563 -1.5,-1.5 -8.680063,4.34665 -10.226565,4.675782 -1.739055,0.370111 -4.274092,-0.24411 -7.779297,-5.414063 -0.20725,-0.305685 -0.36108,-6.498748 -0.160156,-8.476562 -0.988145,-1.25688 -0.535291,-4.021356 -3.621094,-6.935547 -9.458111,-2.31837 -12.538013,31.491445 -17.611328,-1.53711 -0.925745,-8.765959 -3.324658,-8.051294 -6.986328,-8.216796 z"
       inkscape:connector-curvature="0"
       sodipodi:nodetypes="cccccccscccsscccccssscccc" />
    <path
       style="fill:none;fill-rule:evenodd;stroke:#000000;stroke-width:1px;stroke-linecap:butt;stroke-linejoin:miter;stroke-opacity:1"
       d="M 144.35355,70.353553 C 157.15095,60.331858 158.33932,68.564431 158.5,73 c -2.58221,7.143092 -6.98301,11.929679 0.40381,17 3.13498,2.275482 9.9466,-0.738335 13.54073,-3.639088 16.88512,-22.85394 21.19806,5.081223 12.32843,13.045942 -5.77676,5.831936 -11.30634,6.829046 -9.48528,10.646446 2.5197,3.40951 8.85627,-0.50088 11.92677,1.40381 2.94966,2.4071 4.6164,6.00107 4.091,8.88388 0.16856,3.12621 -1.73669,7.22016 -2.86612,7.39645 -1.30114,1.95835 -3.34394,2.77126 -5.36612,3.01256 -2.30225,0.21011 -5.76322,-4.30484 -6,-5.88909 -1.60843,-19.41263 -20.26224,14.68272 -19.75,-1.96447 3.35862,-27.279813 -14.99969,-17.59147 -15.78681,-9.46397 -0.77708,8.02373 0.31536,20.32343 -7.29161,15.96702 -25.96817,-13.4576 14.98559,-23.32546 -6.88084,-28.09187 -7.91961,-1.1243 -2.2657,6.03027 -6.0052,11.47271 -2.20292,2.74658 -5.78712,-1.50487 -7.99004,-2.67678 0,0 5.36678,-13.31516 -4.99372,-6.22855 -15.039095,9.77401 0.0756,-19.372001 7.83211,-12.116117 6.21299,5.337494 21.9106,0.658069 5.91789,-10.883883 -21.12502,-11.114849 -0.62464,-28.539381 13.01105,-8.622845 5.61918,6.747872 7.1311,4.878706 9.2175,-1.898602 z"
       id="path5423"
       inkscape:connector-curvature="0"
       sodipodi:nodetypes="ccccccccccccsccccccccc" />
    <path
       style="fill:none;fill-rule:evenodd;stroke:#000000;stroke-width:1px;stroke-linecap:butt;stroke-linejoin:miter;stroke-opacity:1"
       d="m 58.199747,84.603553 c -2.412363,1.193235 -1.73756,4.746413 -3.967068,10.495243 -4.25738,11.522924 -6.196172,-6.96823 -12.568465,-4.44499 -9.578268,4.358163 -3.97554,12.892794 -0.583632,13.631724 1.761461,0.38374 8.380257,4.26319 8.053302,5.46967 -1.325914,4.28302 -8.380196,2.80237 -7.987437,6.08579 3.677648,7.5287 18.505506,5.13754 16.935028,9.02513 -0.887611,2.20005 -13.17041,-0.30484 -16.861805,4.08578 -1.769699,2.10492 1.792218,6.72365 4.03033,8.7981 1.171299,1.08565 5.353824,2.12762 8.474873,2.43934 3.25705,0.32531 10.434385,-2.42534 9.967516,1.61091 -7.305792,8.93459 -7.237844,16.94493 5.807611,12.69975 1.25,-0.5 4.25,-0.75 4.75,-2.5 0.5,-1.75 1.5,-3.75 1.75,-6.75 0.25,-3 -2.897893,-5.8924 -4.5,-8.25 -3.998723,-10.76403 1.089643,-14.74851 10.125,-1.625 4.386983,6.70408 4.639726,-1.64077 4.75,-4.25 0.06155,-1.45643 -0.29711,-6.11694 -0.875,-8.875 -0.533026,-2.54394 -4.538641,-13.30558 -11.608757,-10.54073 -1.858948,0.72696 -4.646971,2.9856 -9.626525,-0.0932 C 55.878011,106.32296 69.533956,98.270141 68.84099,97.75"
       id="path5425"
       inkscape:connector-curvature="0"
       sodipodi:nodetypes="cccscccsssccssccssscc" />
    <path
       id="path5427"
       style="fill:none;fill-rule:evenodd;stroke:#000000;stroke-width:1px;stroke-linecap:butt;stroke-linejoin:miter;stroke-opacity:1"
       d="M 85.353553,35.81066 C 88.761475,30.429428 94.24977,25.951217 99.25,27 c 2.74937,0.500579 7.00698,16.221094 14.58363,10.472719 13.74232,-25.360351 9.58673,1.593828 20.09835,3.557611 10.33008,3.680485 8.52182,4.465552 -4.24632,7.764087 -9.80995,2.77048 -5.58405,16.028672 4.9179,6.894923 21.32811,-16.179841 11.55965,6.495161 9.78033,14.457107 M 110.69454,91.059135 C 95.744753,67.516003 96.735067,95.843443 92.319544,102.6495 87.376802,109.26134 82.78622,97.27281 81.042892,95.924622"
       inkscape:connector-curvature="0"
       sodipodi:nodetypes="cccccccccc" />
    <path
       style="fill:none;fill-rule:evenodd;stroke:#000000;stroke-width:1px;stroke-linecap:butt;stroke-linejoin:miter;stroke-opacity:1"
       d="m 128.80546,37.353553 c -0.27367,-3.83137 3.62832,-5.746325 5.57322,-4.017767 1.50654,1.338965 4.78911,7.844194 8.18198,5.253048 4.75034,-3.627855 -2.46326,-9.104612 1.01257,-14.808504 4.85,-7.023403 8.42027,1.998806 7.65164,4.401651 -4.35075,13.600961 8.2339,15.883564 6.41422,5.467515 -1.25446,-7.18065 4.81099,-18.116348 10.5533,-9.131729 1.22927,5.324997 -4.45409,9.478742 -0.66206,11.997844 6.68017,4.31744 7.02006,0.145376 10.66206,-2.217514 6.64314,-3.478875 12.36994,8.048741 -6.25089,12.853554 -6.41167,3.671718 -11.75324,4.080085 -0.67069,13.113067 13.48591,11.900258 -7.14655,15.172952 -13.03337,12.722719"
       id="path5429"
       inkscape:connector-curvature="0"
       sodipodi:nodetypes="csscsscccccc" />
    <path
       style="fill:none;fill-rule:evenodd;stroke:#000000;stroke-width:1px;stroke-linecap:butt;stroke-linejoin:miter;stroke-opacity:1"
       d="m 113.48484,109.50629 c -1.71031,5.72836 -5.76963,6.13243 -6.60356,9.43565 -1.02367,7.5057 10.53677,14.48954 2.70971,18.78293 -3.04267,3.89241 -14.347473,4.71649 -9.26693,-12.13312 2.76372,-9.16589 -4.692894,-10.673 -7.334664,-6.19085 -1.083197,1.8378 -4.90419,3.03418 -7.751959,2.92753"
       id="path5431"
       inkscape:connector-curvature="0"
       sodipodi:nodetypes="cccssc" />
    <path
       style="fill:none;fill-rule:evenodd;stroke:#000000;stroke-width:1px;stroke-linecap:butt;stroke-linejoin:miter;stroke-opacity:1"
       d="m 157.42678,126.19974 c 0.5,1.75 0.0732,-1.19974 0.0732,0.55026 0,1.75 0.75,4 2.25,5.5 1.5,1.5 6.25,4.25 6.75,5.25 0.5,1 1.25,2.5 0.75,4 -0.5,1.5 -1.76976,2.66817 -4,3.25 -2.14896,0.56062 -5.77454,-2.18833 -8.05546,-4.76777 -0.67672,-0.76529 -5.48497,-3.64644 -7.35355,-3.89644 -1.2635,-0.16905 -6.23744,-0.40901 -6.98744,1.34099 -2.97308,4.52262 -1.70328,6.4419 2.15901,10.11612 2.27485,2.1535 6.21231,6.21966 6.21231,6.21966 2.00584,0.50146 4.5705,9.41084 -3.74264,9.14429 -2.18273,-0.07 -4.54832,-2.47773 -5.48223,-4.65685 -2.56706,-5.9898 -4.46417,-0.7124 -4.63388,5.84099 -0.0933,3.6011 -9.574,2.78775 -9.58363,-3.96751 -0.0108,-7.56149 11.41293,-16.47598 0.66206,-17.00826 -4.02998,-0.19953 -6.7318,5.88375 -7.18199,7.14429 0,0 -2.76256,14.99049 -3.51256,16.24049 -0.75,1.25 -2.75,3 -5,2.75 -2.25,-0.25 -3.43018,-3.87517 -3.70926,-5.87132 -0.35259,-2.52191 6.41866,-20.25533 -5.41422,-9.49264 -1.37265,1.2485 -6.146015,12.61032 -12.772967,12.74568 -8.499506,0.17361 -0.320945,-18.04792 -2.171573,-18.80634 -2.132737,-0.87403 -7.976516,7.06183 -8.444543,8.44239 -1.603553,4.73008 -5.676777,-2.03033 -4.426777,-3.53033"
       id="path5433"
       inkscape:connector-curvature="0"
       sodipodi:nodetypes="cssssssscccssssscsssssssc" />
    <path
       style="fill:none;fill-opacity:0.79215686"
       d="m 71.630753,98.169494 c -2.343468,-0.636191 -2.428395,-0.701269 -3.44694,-2.641328 -0.328649,-0.625987 -0.543078,-1.298838 -0.543078,-1.704113 0,-0.659559 -0.505314,-3.3041 -0.895409,-4.686091 -0.53637,-1.900197 -2.18004,-4.074619 -3.612396,-4.778862 -1.195453,-0.587765 -3.253526,-0.473018 -5.811837,0.324042 -2.851957,0.888547 -3.836539,0.890327 -5.002195,0.0091 -3.715283,-2.808892 -4.190782,-3.373412 -5.067561,-6.016285 -0.348928,-1.051771 -0.808673,-2.734214 -1.021658,-3.738764 -0.430769,-2.03174 -0.83838,-2.792398 -1.750214,-3.26614 -0.695485,-0.361337 -1.893128,-0.310645 -3.151693,0.133402 l -0.733871,0.258922 0,-2.720362 0,-2.720362 0.779072,-0.638392 c 1.115132,-0.913766 1.342248,-1.505637 1.342248,-3.497924 0,-2.879597 -0.445508,-4.382235 -1.515218,-5.110622 l -0.603686,-0.411062 -0.0012,-7.266878 -0.0012,-7.26688 1.90035,-0.1212 c 2.860783,-0.182456 3.028443,-0.24512 4.62556,-1.728874 0.774822,-0.719824 1.579205,-1.525449 1.787518,-1.790276 0.740698,-0.941644 0.72755,-3.440114 -0.0291,-5.528988 -0.292989,-0.808855 -0.397075,-1.586064 -0.45964,-3.432127 -0.07987,-2.356697 -0.073,-2.410757 0.55027,-4.331029 l 0.631151,-1.944544 1.639934,-1.609181 1.639933,-1.609182 1.856156,-0.469297 c 2.051336,-0.518646 3.410602,-0.579782 6.149957,-0.276611 3.852144,0.426327 5.90163,1.161588 7.250185,2.601034 2.182939,2.330066 3.563134,4.38136 3.807073,5.658206 0.06122,0.320462 0.310756,0.844137 0.554517,1.163724 0.766634,1.005111 4.75775,3.645307 5.510515,3.645307 0.202241,0 0.234123,1.960249 0.196086,12.056793 l -0.04542,12.056795 -1.987953,0.398873 -1.987951,0.398876 -1.686213,1.376406 c -1.673126,1.365724 -1.689458,1.386702 -2.104535,2.702934 -0.947987,3.006123 -0.784686,4.551761 0.639576,6.053539 0.485015,0.511413 1.408544,1.685562 2.052289,2.60922 0.643743,0.923659 1.718439,2.393088 2.388212,3.2654 1.214246,1.58143 1.975436,2.883852 2.274899,3.892428 0.357326,1.203452 0.503607,4.646092 0.498961,11.742788 -0.0031,4.800895 -0.0694,7.57622 -0.184162,7.714505 -0.293444,0.35358 -3.496284,1.847183 -3.925845,1.830767 -0.218183,-0.0083 -1.345645,-0.272775 -2.505474,-0.587638 z"
       id="path5435"
       inkscape:connector-curvature="0" />
  </g>
  <g
     inkscape:groupmode="layer"
     id="layer7"
     inkscape:label="Layer 6"
     style="display:inline">
    <text
       xml:space="preserve"
       style="font-style:normal;font-weight:normal;font-size:7.5px;line-height:125%;font-family:sans-serif;letter-spacing:0px;word-spacing:0px;fill:#666666;fill-opacity:1;stroke:none;stroke-width:1px;stroke-linecap:butt;stroke-linejoin:miter;stroke-opacity:1"
       x="211.34315"
       y="64.43071"
       id="text5598"
       sodipodi:linespacing="125%"><tspan
         sodipodi:role="line"
         id="tspan5600"
         x="211.34315"
         y="64.43071">Perimeter</tspan></text>
    <text
       xml:space="preserve"
       style="font-style:normal;font-weight:normal;font-size:20px;line-height:125%;font-family:sans-serif;letter-spacing:0px;word-spacing:0px;fill:#000000;fill-opacity:1;stroke:none;stroke-width:1px;stroke-linecap:butt;stroke-linejoin:miter;stroke-opacity:1"
       x="216"
       y="78"
       id="text5602"
       sodipodi:linespacing="125%"><tspan
         sodipodi:role="line"
         id="tspan5604"
         x="216"
         y="78" /></text>
    <g
       id="g5878"
       transform="translate(-3.8890873,7.4246212)">
      <text
         sodipodi:linespacing="125%"
         id="text5598-9-5"
         y="46.179996"
         x="202.31947"
         style="font-style:normal;font-weight:normal;font-size:7.5px;line-height:125%;font-family:sans-serif;letter-spacing:0px;word-spacing:0px;display:inline;fill:#666666;fill-opacity:1;stroke:none;stroke-width:1px;stroke-linecap:butt;stroke-linejoin:miter;stroke-opacity:1"
         xml:space="preserve"><tspan
           id="tspan5768"
           y="46.179996"
           x="202.31947"
           sodipodi:role="line">Area</tspan></text>
    </g>
    <text
       xml:space="preserve"
       style="font-style:normal;font-weight:normal;font-size:7.5px;line-height:125%;font-family:sans-serif;letter-spacing:0px;word-spacing:0px;display:inline;fill:#666666;fill-opacity:1;stroke:none;stroke-width:1px;stroke-linecap:butt;stroke-linejoin:miter;stroke-opacity:1"
       x="233.63756"
       y="75.675682"
       id="text5598-9"
       sodipodi:linespacing="125%"><tspan
         sodipodi:role="line"
         x="233.63756"
         y="75.675682"
         id="tspan5702">Excentricity</tspan></text>
    <text
       xml:space="preserve"
       style="font-style:normal;font-weight:normal;font-size:7.5px;line-height:125%;font-family:sans-serif;letter-spacing:0px;word-spacing:0px;display:inline;fill:#666666;fill-opacity:1;stroke:none;stroke-width:1px;stroke-linecap:butt;stroke-linejoin:miter;stroke-opacity:1"
       x="217.10027"
       y="103.30743"
       id="text5598-9-6-8-9"
       sodipodi:linespacing="125%"><tspan
         sodipodi:role="line"
         id="tspan5600-3-1-7-2"
         x="217.10027"
         y="103.30743">Lobe Count</tspan></text>
    <text
       xml:space="preserve"
       style="font-style:normal;font-weight:normal;font-size:7.5px;line-height:125%;font-family:sans-serif;letter-spacing:0px;word-spacing:0px;display:inline;fill:#666666;fill-opacity:1;stroke:none;stroke-width:1px;stroke-linecap:butt;stroke-linejoin:miter;stroke-opacity:1"
       x="207.37666"
       y="89.634071"
       id="text5598-9-6"
       sodipodi:linespacing="125%"><tspan
         sodipodi:role="line"
         id="tspan5600-3-1"
         x="207.37666"
         y="89.634071">Circularity</tspan></text>
    <text
       xml:space="preserve"
       style="font-style:normal;font-weight:normal;font-size:7.5px;line-height:125%;font-family:sans-serif;letter-spacing:0px;word-spacing:0px;display:inline;fill:#666666;fill-opacity:1;stroke:none;stroke-width:1px;stroke-linecap:butt;stroke-linejoin:miter;stroke-opacity:1"
       x="239.28401"
       y="143.10031"
       id="text5598-9-6-8"
       sodipodi:linespacing="125%"><tspan
         sodipodi:role="line"
         id="tspan5600-3-1-7"
         x="239.28401"
         y="143.10031">Branch Count</tspan></text>
    <text
       xml:space="preserve"
       style="font-style:normal;font-weight:normal;font-size:7.5px;line-height:125%;font-family:sans-serif;letter-spacing:0px;word-spacing:0px;display:inline;fill:#666666;fill-opacity:1;stroke:none;stroke-width:1px;stroke-linecap:butt;stroke-linejoin:miter;stroke-opacity:1"
       x="217.97189"
       y="156.17038"
       id="text5598-9-6-8-9-0"
       sodipodi:linespacing="125%"><tspan
         sodipodi:role="line"
         id="tspan5600-3-1-7-2-2"
         x="217.97189"
         y="156.17038">Lobe Length</tspan></text>
    <text
       xml:space="preserve"
       style="font-style:normal;font-weight:normal;font-size:7.5px;line-height:125%;font-family:sans-serif;letter-spacing:0px;word-spacing:0px;display:inline;fill:#666666;fill-opacity:1;stroke:none;stroke-width:1px;stroke-linecap:butt;stroke-linejoin:miter;stroke-opacity:1"
       x="201.24661"
       y="130.39043"
       id="text5598-9-6-8-3"
       sodipodi:linespacing="125%"><tspan
         sodipodi:role="line"
         id="tspan5600-3-1-7-7"
         x="201.24661"
         y="130.39043">None-lobe Area</tspan></text>
    <text
       xml:space="preserve"
       style="font-style:normal;font-weight:normal;font-size:7.5px;line-height:125%;font-family:sans-serif;letter-spacing:0px;word-spacing:0px;display:inline;fill:#666666;fill-opacity:1;stroke:none;stroke-width:1px;stroke-linecap:butt;stroke-linejoin:miter;stroke-opacity:1"
       x="251.8719"
       y="117.51423"
       id="text5598-8"
       sodipodi:linespacing="125%"><tspan
         sodipodi:role="line"
         id="tspan5600-9"
         x="251.8719"
         y="117.51423">Solidity</tspan></text>
    <g
       id="g5874"
       transform="translate(-2.8284272,6.363961)">
      <text
         sodipodi:linespacing="125%"
         id="text5598-8-7"
         y="41.14669"
         x="233.84068"
         style="font-style:normal;font-weight:normal;font-size:7.5px;line-height:125%;font-family:sans-serif;letter-spacing:0px;word-spacing:0px;display:inline;fill:#666666;fill-opacity:1;stroke:none;stroke-width:1px;stroke-linecap:butt;stroke-linejoin:miter;stroke-opacity:1"
         xml:space="preserve"><tspan
           y="41.14669"
           x="233.84068"
           id="tspan5600-9-3"
           sodipodi:role="line">Roundness</tspan></text>
    </g>
    <text
       xml:space="preserve"
       style="font-style:normal;font-weight:normal;font-size:7.5px;line-height:125%;font-family:sans-serif;letter-spacing:0px;word-spacing:0px;display:inline;fill:#666666;fill-opacity:1;stroke:none;stroke-width:1px;stroke-linecap:butt;stroke-linejoin:miter;stroke-opacity:1"
       x="258.9642"
       y="58.728828"
       id="text5598-9-5-6"
       sodipodi:linespacing="125%"><tspan
         sodipodi:role="line"
         x="258.9642"
         y="58.728828"
         id="tspan5768-1">Length</tspan></text>
    <g
       id="g5870"
       transform="translate(-7.0710678,7.7781746)">
      <text
         sodipodi:linespacing="125%"
         id="text5598-9-5-2"
         y="28.676786"
         x="217.59846"
         style="font-style:normal;font-weight:normal;font-size:7.5px;line-height:125%;font-family:sans-serif;letter-spacing:0px;word-spacing:0px;display:inline;fill:#666666;fill-opacity:1;stroke:none;stroke-width:1px;stroke-linecap:butt;stroke-linejoin:miter;stroke-opacity:1"
         xml:space="preserve"><tspan
           id="tspan5768-9"
           y="28.676786"
           x="217.59846"
           sodipodi:role="line">Width</tspan></text>
    </g>
  </g>
  <path
     style="fill:#fe6666;fill-opacity:1;stroke:#0000bb;stroke-width:0.08838835;stroke-opacity:1"
     d="M 75.094401,99.565121 C 74.081476,99.427068 72.748068,98.997943 70.687883,98.146988 L 69.463346,97.641196 68.904712,96.800414 C 68.597463,96.337983 68.19662,95.664588 68.013948,95.303981 67.721837,94.727332 67.67384,94.540954 67.615601,93.757185 67.499502,92.194721 66.792495,89.049026 66.34489,88.10339 c -0.242798,-0.512947 -1.043653,-1.375046 -1.788578,-1.925354 -1.48301,-1.095564 -3.864968,-1.887288 -6.870656,-2.283698 -1.950697,-0.25727 -3.812769,-0.351081 -8.754206,-0.441034 -4.550723,-0.08284 -5.77775,-0.154203 -6.972427,-0.405511 -0.816567,-0.171771 -1.599897,-0.53194 -1.879433,-0.864149 -0.48761,-0.579491 -0.102965,-1.775615 1.084146,-3.371352 0.360833,-0.485036 1.319408,-1.50176 2.45618,-2.605172 6.070396,-5.892258 7.825849,-7.865175 8.977618,-10.089761 0.788196,-1.522361 0.922906,-2.626369 0.438699,-3.595351 -1.025201,-2.051608 -4.644024,-2.453167 -11.706181,-1.298964 -2.924781,0.478012 -4.542662,0.581111 -6.187184,0.394275 -3.109904,-0.353319 -4.863302,-1.535412 -5.405047,-3.643937 -0.182325,-0.709629 -0.11635,-2.058173 0.145878,-2.98175 0.446079,-1.571105 1.477022,-3.304907 2.768275,-4.655582 1.942467,-2.031855 4.241595,-3.234105 6.429657,-3.362166 1.136415,-0.06651 1.96958,0.119115 5.280198,1.176413 4.107563,1.311816 5.457977,1.625339 7.003828,1.626067 1.686871,7.96e-4 2.674765,-0.551462 3.240655,-1.811605 0.130709,-0.291069 0.157351,-0.580062 0.150748,-1.635185 -0.0072,-1.142105 -0.03819,-1.394466 -0.285177,-2.318082 -0.486391,-1.818904 -1.398734,-4.066256 -2.754834,-6.785918 -0.375721,-0.75351 -0.772171,-1.64014 -0.880998,-1.970287 -0.108827,-0.330148 -0.60712,-1.425013 -1.107318,-2.433035 -1.247524,-2.514068 -1.403058,-3.026037 -1.401201,-4.612289 0.0045,-3.868724 2.915178,-7.129428 7.851763,-8.796079 l 0.972272,-0.328251 1.414213,0.09108 c 1.66583,0.107281 2.197618,0.267231 2.855752,0.85895 1.009802,0.907899 1.532902,2.512552 2.092092,6.417668 0.389591,2.720718 0.922502,5.740747 1.378362,7.811238 1.079051,4.900982 2.143168,7.210131 3.477448,7.546106 0.761208,0.191675 1.331619,-0.045 2.134874,-0.885804 0.728002,-0.762033 1.224253,-1.522137 2.834701,-4.341903 1.598962,-2.799649 2.442795,-4.117394 3.3725,-5.266557 1.362592,-1.684231 2.79698,-2.579656 4.124608,-2.574811 0.523622,0.0019 0.72161,0.139285 1.388227,0.963224 0.780344,0.964504 1.294419,2.025211 1.802935,3.720055 0.226082,0.753511 0.474072,1.489344 0.55109,1.635185 0.119365,0.226028 0.136745,0.610875 0.117756,2.607456 -0.02609,2.74271 0.115402,5.808542 0.28702,6.219282 0.163658,0.391686 1.587343,2.258501 2.350712,3.08238 1.168352,1.260967 2.484204,2.180729 3.714641,2.596483 0.350704,0.118499 0.745966,0.164624 1.418797,0.165563 0.899234,0.0013 0.956258,-0.01042 1.590991,-0.325819 0.362081,-0.179917 1.712359,-0.988889 3.00062,-1.797716 2.511387,-1.576762 4.301274,-2.521523 5.198364,-2.743871 0.74378,-0.184351 0.92697,-0.07604 1.09214,0.645769 0.14987,0.654957 0.14773,4.068482 -0.004,5.902317 -0.2911,3.525104 -0.86618,7.966814 -1.21877,9.413359 -0.63317,2.597646 -2.10476,5.631817 -3.882014,8.004072 -1.904455,2.54204 -3.771591,3.807837 -4.293378,2.910632 -0.476791,-0.819834 -0.393744,-2.813885 0.239222,-5.743986 0.191244,-0.885299 0.237338,-1.374993 0.278794,-2.961895 0.08606,-3.294282 -0.30493,-5.368057 -1.221817,-6.4804 -0.613932,-0.744805 -1.541009,-0.900294 -2.498336,-0.419022 -0.676263,0.339975 -0.721925,0.380822 -1.687351,1.509432 -1.683106,1.967597 -3.264903,3.391425 -4.333331,3.900575 -0.65718,0.313174 -0.926036,0.317542 -1.278725,0.02078 -0.531313,-0.447071 -0.839481,-1.346642 -1.366255,-3.988231 -0.412014,-2.066104 -0.675674,-2.985125 -1.113647,-3.881748 -0.598789,-1.22585 -1.447742,-1.89616 -2.561926,-2.022828 -1.903221,-0.21637 -5.102065,1.713677 -8.577246,5.175148 -0.973021,0.969183 -1.175585,1.224245 -1.649602,2.077127 -0.65233,1.173716 -1.197998,2.462116 -1.497381,3.535534 -0.300301,1.076709 -0.378961,2.675407 -0.171781,3.491339 0.530452,2.089072 2.114749,3.284583 4.99881,3.772104 1.027833,0.173745 3.585941,0.19516 5.016788,0.042 0.730847,-0.07823 1.149008,-0.08102 1.59099,-0.01063 2.761898,0.439901 5.055923,2.688871 4.183172,4.101011 -0.225522,0.364904 -0.822069,0.775125 -1.497173,1.029545 -0.272492,0.102692 -1.48981,0.443208 -2.70515,0.756701 -4.114828,1.061407 -5.641049,1.549728 -7.159456,2.290698 -1.508068,0.735926 -2.165514,1.425069 -2.165514,2.269921 0,1.50225 1.923164,2.589407 6.761708,3.822369 2.106306,0.536732 3.070971,0.866726 3.91738,1.340064 0.698596,0.390678 1.383756,1.008485 1.609787,1.451542 0.392096,0.768572 0.694846,3.712935 0.539417,5.246041 -0.295428,2.914003 -1.367545,4.743637 -3.680098,6.280311 -0.775576,0.515364 -2.27323,1.292015 -2.451011,1.271041 -0.06174,-0.0073 -0.231576,-0.02951 -0.377417,-0.04938 l 2e-6,0 z"
     id="path5776"
     inkscape:connector-curvature="0" />
  <path
     style="fill:#f7120b;fill-opacity:1;stroke:#0000bb;stroke-width:0.08838835;stroke-opacity:1"
     d=""
     id="path5778"
     inkscape:connector-curvature="0" />
  <path
     style="fill:#3812ca;fill-opacity:1;stroke:#0000bb;stroke-width:0.125;stroke-opacity:1"
     d="m 88.055639,103.72866 c -1.043021,-0.48558 -2.328735,-1.89494 -3.855295,-4.226036 -0.729889,-1.11456 -1.57798,-2.4042 -1.884647,-2.865866 l -0.557578,-0.839395 0.3107,-0.785605 c 0.501653,-1.268428 0.638105,-2.151711 0.633093,-4.098106 -0.0051,-1.989417 -0.270954,-3.836629 -0.662604,-4.604324 -0.634436,-1.243599 -2.430543,-2.324119 -5.015823,-3.017468 -3.996212,-1.071748 -5.628115,-1.63981 -6.476704,-2.254525 -0.754013,-0.546203 -0.835173,-0.774696 -0.441396,-1.242673 0.702009,-0.83429 2.857456,-1.65036 7.798375,-2.952527 1.684375,-0.443912 3.408009,-0.975592 3.830299,-1.18151 2.315064,-1.128876 2.506529,-3.209705 0.470579,-5.114236 -1.198853,-1.121467 -2.903274,-1.853832 -4.425878,-1.901735 -0.309375,-0.0097 -1.51875,0.02534 -2.6875,0.07793 -2.328125,0.104768 -3.505569,-0.0028 -4.845899,-0.442828 -2.81646,-0.924579 -3.49621,-3.359988 -1.964651,-7.038958 0.767741,-1.844196 1.460041,-2.835628 2.93555,-4.203954 2.893698,-2.683494 5.155883,-4.108825 6.697041,-4.219595 0.788041,-0.05664 0.841364,-0.04212 1.289277,0.351156 0.846354,0.743108 1.226041,1.770629 1.952666,5.284353 0.465438,2.250709 0.768653,3.0941 1.339585,3.726055 0.834839,0.924066 1.960779,0.909774 3.440039,-0.04367 0.884699,-0.570222 2.689461,-2.289836 3.988782,-3.800592 1.437842,-1.671816 2.200514,-1.81211 2.794525,-0.514058 0.521988,1.140664 0.723027,2.745683 0.645778,5.155655 -0.03958,1.234708 -0.14655,2.439222 -0.255331,2.875001 -0.358107,1.434576 -0.611903,3.593462 -0.546638,4.64989 0.143611,2.324573 1.31708,3.205733 3.098484,2.326656 0.994175,-0.490601 2.977812,-2.530254 4.080599,-4.195828 1.535623,-2.319312 2.738623,-4.887021 3.346533,-7.14297 0.80832,-2.999624 1.6896,-12.099997 1.44778,-14.950249 -0.12883,-1.518541 -0.28981,-2.07873 -0.70785,-2.463178 -0.98757,-0.908239 -2.66585,-0.326049 -7.20147,2.49818 -3.306785,2.05906 -3.469803,2.13446 -4.445447,2.056145 -1.210244,-0.09715 -2.217399,-0.664727 -3.599776,-2.028647 -0.627124,-0.61875 -1.468757,-1.566317 -1.870294,-2.105706 l -0.73007,-0.980705 -0.09295,-1.331795 c -0.05112,-0.732486 -0.09651,-2.393909 -0.100856,-3.69205 l -0.0079,-2.360256 0.865143,-1.202244 c 3.373804,-4.688401 7.527167,-7.502479 11.087982,-7.512573 1.8481,-0.0052 1.817118,-0.0374 5.115888,5.310329 1.68799,2.736458 3.42018,4.75504 4.87263,5.678255 1.84002,1.169567 3.98902,1.131923 5.91442,-0.103599 0.49446,-0.317297 0.71467,-0.595616 1.26929,-1.604277 2.43153,-4.422091 4.81187,-7.789954 6.254,-8.848568 1.86311,-1.367654 2.66151,-0.619825 4.80769,4.503189 2.4246,5.787619 4.27495,8.145887 7.06296,9.001705 3.33565,1.023925 7,2.723027 7,3.245789 0,0.615691 -2.45824,1.519924 -8.625,3.172596 -2.92462,0.783792 -3.54683,1.020532 -4.68773,1.783612 -2.10668,1.409033 -3.13663,3.301697 -3.04109,5.588423 0.0757,1.812215 0.83087,3.060724 2.28397,3.776082 2.15058,1.058731 5.06163,0.297381 8.18701,-2.141215 4.31828,-3.369375 7.73595,-5.424424 9.97237,-5.996405 1.1796,-0.301692 1.5819,-0.301644 2.24689,2.5e-4 0.98258,0.446096 1.35585,1.86183 1.14641,4.348177 -0.18243,2.165904 -0.67465,4.285655 -2.30191,9.913345 -0.50769,1.755807 -1.03991,3.684308 -1.18271,4.285559 -0.34583,1.456145 -1.02986,3.416011 -1.6258,4.658206 -0.57005,1.188265 -1.28922,1.926377 -1.87692,1.926377 -1.15142,0 -3.41755,-1.968522 -5.46813,-4.75 -3.47902,-4.719082 -7.64737,-7.643293 -11.95031,-8.383469 -1.39783,-0.240449 -3.92702,-0.09174 -5.13955,0.302188 -2.63435,0.855855 -4.64083,2.825189 -5.2461,5.148974 -0.24831,0.953327 -0.24426,2.637209 0.009,3.67432 0.73874,3.027158 3.64742,6.305887 7.60318,8.570487 2.33454,1.336476 5.33353,3.865416 6.65543,5.612267 1.21646,1.607529 1.7419,3.246809 1.42114,4.433735 -0.21431,0.793038 -1.05988,1.639565 -2.13075,2.133156 -2.93293,1.351878 -7.22713,0.744079 -9.76802,-1.382561 -0.31972,-0.26759 -0.91034,-0.640669 -1.3125,-0.829062 -0.64432,-0.301833 -0.87231,-0.341239 -1.9187,-0.331625 -0.76867,0.0071 -1.37523,0.08239 -1.71976,0.21356 l -0.53226,0.202651 -0.98233,-1.46356 c -1.92851,-2.873248 -3.90674,-5.194845 -5.41946,-6.360123 -1.78796,-1.377306 -3.47301,-1.718825 -4.827241,-0.978367 -0.892408,0.487946 -1.622943,1.328511 -2.30735,2.654872 -0.85607,1.65904 -1.501844,3.689199 -2.594837,8.157557 -1.923387,7.863161 -2.335123,9.058701 -3.576985,10.386351 -1.046043,1.11831 -2.053855,1.36653 -3.262906,0.80366 l 5e-6,0 z"
     id="path5780"
     inkscape:connector-curvature="0" />
  <path
     style="fill:#08b706;fill-opacity:1;stroke:#0000bb;stroke-width:0.125;stroke-opacity:1"
     d="m 181.80227,129.82533 c -0.8843,-0.46023 -2.37718,-1.9458 -3.21676,-3.20098 -0.8078,-1.20767 -0.91072,-1.49593 -1.1295,-3.16346 -0.37712,-2.87449 -1.40859,-4.68526 -2.96063,-5.19748 -0.79433,-0.26216 -2.05926,-0.0682 -3.2352,0.49605 -1.67341,0.80296 -2.24211,1.21365 -6.17205,4.45717 -1.34062,1.10646 -2.80312,2.26828 -3.25,2.58182 -1.77374,1.2445 -2.85948,1.53942 -3.35381,0.91099 -0.58024,-0.73767 -0.71467,-2.66054 -0.40625,-5.81105 0.38035,-3.88527 0.15637,-8.09594 -0.56362,-10.59557 -1.38258,-4.80001 -4.73956,-6.91038 -8.86382,-5.57224 -3.54783,1.15111 -6.92928,4.70145 -7.54114,7.91781 -0.16088,0.84571 -0.22525,1.66463 -0.46177,5.875 -0.35727,6.35981 -0.74853,8.54638 -1.81827,10.16139 -0.40178,0.60658 -1.18537,1.08861 -1.76965,1.08861 -0.60799,0 -1.8101,-0.46188 -3.23574,-1.24325 -3.82527,-2.09657 -6.24687,-4.17182 -7.30097,-6.25675 -0.94866,-1.87637 -0.91215,-3.41132 0.13232,-5.5625 0.70634,-1.45477 1.70174,-2.77136 4.00422,-5.29629 2.98756,-3.2762 3.77556,-4.44666 3.89727,-5.78884 0.1863,-2.05455 -1.50445,-3.39768 -5.71877,-4.54298 -1.44503,-0.39271 -3.3209,-0.53228 -4.22834,-0.31459 -1.11253,0.2669 -1.80769,0.92474 -2.17725,2.0604 -0.0684,0.21026 -0.16423,1.81668 -0.21289,3.5698 -0.083,2.99097 -0.10872,3.24632 -0.41666,4.14149 -0.38682,1.12445 -0.86115,1.94877 -1.32116,2.29601 -0.507,0.38271 -1.40362,0.3218 -2.34645,-0.15939 -0.58785,-0.30002 -3.42031,-2.28313 -3.94548,-2.76238 -0.0471,-0.043 0.102,-0.69698 0.33144,-1.45323 0.55518,-1.82992 0.87096,-3.75995 0.77126,-4.7139 -0.169,-1.61685 -0.82336,-2.36728 -2.13665,-2.45031 -1.24185,-0.0785 -2.58374,0.47217 -5.02178,2.06084 -2.00746,1.3081 -4.00897,2.10887 -4.863,1.94561 -1.11057,-0.2123 -0.92851,-2.36738 0.44074,-5.21724 1.93452,-4.026377 5.35277,-7.666315 8.11521,-8.64151 1.56767,-0.553419 2.66562,-0.344764 4.05215,0.770074 1.07973,0.868146 2.5779,1.595616 4.02136,1.952657 1.4628,0.361824 4.07608,0.394039 5.3125,0.06549 1.90565,-0.506381 3.365,-1.496262 4.02264,-2.728559 0.25026,-0.468943 0.28986,-0.722471 0.28986,-1.855651 0,-1.260745 -0.0186,-1.35154 -0.47269,-2.302535 -0.64913,-1.35955 -1.4561,-2.406319 -3.0483,-3.954117 -1.57665,-1.532688 -2.9857,-2.630935 -4.49035,-3.499895 -2.93159,-1.693052 -5.43451,-3.881489 -6.60281,-5.773207 -1.90291,-3.081215 -1.73433,-5.954481 0.47921,-8.167463 1.63788,-1.637469 3.42702,-2.258247 6.18183,-2.14491 2.49809,0.102776 4.48181,0.797465 6.94522,2.432179 1.59821,1.060571 4.11886,3.555083 5.59293,5.534948 2.94865,3.960407 5.38798,5.711456 7.14749,5.130765 1.0835,-0.357586 2.11961,-1.945579 3.08313,-4.725363 l 0.53105,-1.532099 0.82665,-0.609534 c 4.41476,-3.255269 7.83869,-4.502951 9.71069,-3.538589 1.38034,0.711081 2.11868,2.262207 2.42476,5.094004 l 0.13583,1.256685 -0.43045,1.067739 c -0.23675,0.587256 -0.84954,2.046748 -1.36175,3.243315 -1.5004,3.505022 -1.86134,4.756072 -1.87187,6.488077 -0.0122,2.012859 0.64735,3.495834 2.27969,5.125515 1.25062,1.248591 2.40591,2.050595 3.37127,2.340336 0.92386,0.277285 2.77924,0.267398 4.06847,-0.02168 2.30623,-0.517116 5.18868,-1.802005 7.37065,-3.28556 1.09257,-0.74285 1.39824,-1.038912 2.48718,-2.409024 1.68767,-2.123413 4.47885,-4.887337 5.85023,-5.793087 2.03028,-1.340931 3.66876,-1.745545 5.11956,-1.264244 0.94359,0.313035 2.0448,1.430361 2.64404,2.682745 1.49675,3.12811 1.60206,8.101775 0.26004,12.280686 -0.52515,1.635242 -1.32854,3.255875 -2.15608,4.349307 -1.05188,1.389852 -3.73099,3.738365 -6.70062,5.873795 -3.2204,2.31574 -4.13055,3.2405 -4.44313,4.51445 -0.17561,0.7157 0.0108,1.76572 0.42247,2.3803 0.35965,0.53687 1.31555,1.17443 2.11823,1.4128 0.87408,0.25957 2.56824,0.23782 4.77743,-0.0613 2.36835,-0.32071 4.06943,-0.32674 4.75,-0.0168 0.69701,0.3174 2.38936,2.15403 3.04122,3.30051 0.29768,0.52353 0.68892,1.36294 0.86944,1.86535 0.30399,0.84605 0.32689,1.05329 0.31021,2.80772 -0.0248,2.60512 -0.28934,3.8925 -1.19048,5.79283 -0.51196,1.07963 -2.70205,3.29953 -3.80405,3.85581 -1.58684,0.80104 -2.96845,0.95724 -3.9497,0.44655 z"
     id="path5782"
     inkscape:connector-curvature="0" />
  <path
     style="fill:#fab706;fill-opacity:1;stroke:#0000bb;stroke-width:0.125;stroke-opacity:1"
     d="m 160.27947,72.963715 c -0.58386,-0.102712 -1.05474,-0.255356 -1.1377,-0.368801 -0.0778,-0.106455 -0.17748,-0.661319 -0.22143,-1.233029 -0.17153,-2.231514 -0.84459,-3.991691 -1.95006,-5.09973 -0.91414,-0.916265 -1.64363,-1.181627 -3.19465,-1.162104 -1.92239,0.0242 -4.19867,0.947453 -7.07659,2.870253 -0.7485,0.50009 -1.36091,0.853994 -1.36091,0.786452 0,-0.06754 0.4189,-1.567991 0.93089,-3.334333 1.93152,-6.663734 2.35907,-8.706607 2.37261,-11.336533 0.007,-1.382624 -0.0384,-1.885871 -0.2168,-2.397225 -0.7437,-2.13174 -2.44467,-2.72618 -5.17701,-1.809221 -1.36527,0.458177 -2.24785,0.888075 -4.08088,1.987777 -1.41258,0.847458 -4.29958,2.877278 -5.7013,4.00852 -2.40494,1.940887 -5.00809,2.80846 -6.65901,2.219305 -1.69457,-0.604731 -2.50829,-2.61273 -1.84841,-4.561291 0.33816,-0.998565 0.79122,-1.664976 1.69101,-2.487333 1.08894,-0.995235 2.10461,-1.412246 6.0014,-2.464033 6.27224,-1.69295 7.91546,-2.377384 8.38063,-3.490694 0.50696,-1.213323 -0.69506,-2.182073 -4.63063,-3.731993 -0.9625,-0.379056 -2.0875,-0.785793 -2.5,-0.903862 -1.6885,-0.483295 -3.11317,-1.541259 -4.1798,-3.103929 -0.40753,-0.597059 -0.41279,-0.621827 -0.26879,-1.265276 0.27494,-1.228576 1.23248,-2.328147 2.34803,-2.696311 0.55494,-0.183147 1.55058,-0.09439 1.96152,0.174868 0.17196,0.112676 0.89168,0.950928 1.59936,1.862782 0.70769,0.911853 1.69174,2.060507 2.18678,2.552562 2.12278,2.109963 4.11539,2.299196 5.89627,0.559954 1.08962,-1.064151 1.51716,-2.443324 1.26767,-4.089278 -0.0779,-0.51369 -0.41952,-1.89855 -0.75922,-3.077467 -0.88784,-3.081236 -0.9978,-4.746663 -0.41169,-6.235688 0.46065,-1.170285 1.43429,-2.383478 2.41559,-3.009911 0.63314,-0.404174 1.5287,-0.479123 2.11322,-0.176853 0.60499,0.312852 1.40735,1.31644 1.89124,2.365559 0.87357,1.893965 0.94142,2.768344 0.3855,4.967401 -0.88206,3.489155 -0.75835,6.385193 0.36809,8.616639 1.35635,2.68692 4.2468,3.598785 6.10675,1.92653 0.66867,-0.601191 1.04629,-1.286568 1.34154,-2.434863 0.17211,-0.66936 0.18996,-1.083273 0.10486,-2.431669 -0.15949,-2.527189 -0.13557,-5.407511 0.0514,-6.1875 0.90755,-3.786306 2.62103,-6.372897 4.60346,-6.949207 0.79585,-0.231358 1.49569,-0.117561 2.35498,0.38293 0.58253,0.339287 1.60537,1.386238 2.1321,2.182351 0.34357,0.519273 0.36548,0.627192 0.35526,1.749914 -0.0127,1.401838 -0.20271,2.185715 -1.07751,4.446512 -0.84994,2.196568 -0.98234,2.678647 -0.98943,3.602676 -0.0111,1.441328 0.55038,2.232408 2.31595,3.263171 1.93503,1.129704 2.68098,1.378849 4.13688,1.381703 1.65377,0.0032 2.03156,-0.189116 3.98014,-2.026538 0.83592,-0.788238 1.74486,-1.589373 2.01986,-1.780301 1.18423,-0.822184 2.88669,-1.00323 4.03816,-0.429432 1.77767,0.885853 2.25797,2.889868 1.20579,5.03112 -1.31004,2.666002 -5.05941,5.085317 -10.18178,6.569868 -2.23028,0.646375 -7.20672,3.334258 -8.07505,4.361504 -0.59873,0.708301 -0.83786,1.413693 -0.76921,2.268969 0.14156,1.763544 1.70604,3.744381 5.59459,7.083514 3.45931,2.970531 4.96324,5.000836 5.20011,7.020142 0.31496,2.684984 -2.41302,4.799215 -7.55928,5.858584 -1.60476,0.330343 -5.8586,0.430725 -7.32449,0.172845 z"
     id="path5784"
     inkscape:connector-curvature="0" />
  <path
     style="fill:#fafb06;fill-opacity:1;stroke:#0000bb;stroke-width:0.17677669;stroke-opacity:1"
     d="m 103.22264,139.34129 c -1.57469,-0.51899 -2.66524,-1.66554 -3.1851,-3.34865 -0.688897,-2.2304 -0.387266,-6.03616 0.79422,-10.02085 0.62615,-2.11174 0.78897,-4.73461 0.38104,-6.13786 -0.61388,-2.11168 -2.24904,-3.41632 -4.259868,-3.39881 -1.878771,0.0164 -3.045845,0.74544 -4.731351,2.95571 -0.789117,1.0348 -3.195196,2.03082 -5.57061,2.30602 -0.615706,0.0713 -0.751714,0.0342 -0.753597,-0.2055 -0.0012,-0.16089 -0.345013,-1.14222 -0.763889,-2.18074 -2.059258,-5.10547 -5.173856,-8.28802 -8.397106,-8.5803 -1.288697,-0.11685 -2.19557,0.0952 -4.356921,1.0186 -0.961478,0.41078 -2.069576,0.74533 -2.680086,0.80914 -2.511882,0.26254 -6.134254,-1.52159 -7.170339,-3.53163 -1.136055,-2.20397 0.264696,-4.82586 4.73546,-8.86373 l 1.660234,-1.49947 0.930268,0.373562 c 2.33662,0.938302 3.743738,1.395718 4.824839,1.568428 l 1.169491,0.18682 1.425142,-0.75676 c 0.787212,-0.418017 1.971356,-1.261512 2.64539,-1.884377 0.671138,-0.620188 1.25002,-1.097485 1.286406,-1.06066 0.03639,0.03682 0.858589,1.260195 1.827118,2.718603 3.241576,4.881164 5.289578,6.175624 7.795166,4.927034 1.175265,-0.58565 2.09392,-1.72722 2.853965,-3.54646 0.317225,-0.75932 1.164665,-3.767059 1.883198,-6.683875 1.469548,-5.965497 1.96727,-7.610073 2.819576,-9.316482 1.43627,-2.875563 2.809874,-3.391449 5.060614,-1.900619 1.23794,0.819976 3.40431,3.208668 5.04922,5.567377 1.42126,2.038014 1.459,2.117806 1.12419,2.376667 -0.19054,0.147319 -0.79756,0.614438 -1.34894,1.038041 -1.80043,1.383213 -4.10895,4.356898 -5.4507,7.021271 -0.97051,1.92717 -1.41703,3.59591 -1.3296,4.96896 0.067,1.0517 0.13049,1.2136 0.66284,1.68925 0.54331,0.48545 0.67262,0.52074 1.67434,0.45696 1.27002,-0.0809 2.7274,-0.7257 5.59975,-2.47767 2.91033,-1.77512 4.17848,-1.97883 4.58831,-0.73703 0.35151,1.06509 -0.15536,4.11205 -1.01045,6.07413 -1.34225,3.07992 -1.6319,3.51145 -3.71409,5.53341 -2.9982,2.91147 -3.49554,4.1836 -2.79582,7.15133 0.38809,1.646 1.00494,2.99902 2.84047,6.23037 0.91127,1.60424 1.81814,3.38667 2.01526,3.96095 0.64606,1.88224 0.40592,3.11089 -0.8078,4.13321 -0.37948,0.31963 -1.12331,0.94773 -1.65295,1.39578 -1.31848,1.11535 -2.55295,1.64951 -4.02381,1.74112 -0.66022,0.0411 -1.39978,0.009 -1.64348,-0.0713 z"
     id="path5786"
     inkscape:connector-curvature="0" />
  <path
     style="fill:#b35fbf;fill-opacity:1;stroke:#0000bb;stroke-width:0.17677669;stroke-opacity:1"
     d="m 61.443532,154.7937 c -2.363932,-0.84286 -2.681294,-3.33657 -0.901849,-7.08639 0.619505,-1.30548 2.258608,-3.88779 3.236321,-5.09863 0.613956,-0.76034 0.680308,-1.23372 0.300383,-2.14301 -0.604425,-1.44659 -2.027072,-1.69884 -6.499584,-1.15245 -3.592639,0.4389 -4.433589,0.38971 -7.918355,-0.46321 -3.499031,-0.85641 -4.706034,-1.7201 -6.835205,-4.89104 -1.49971,-2.2335 -1.827908,-3.73793 -1.023894,-4.69345 1.378772,-1.63857 4.146524,-2.34487 10.482387,-2.67498 1.977558,-0.10303 3.988507,-0.27161 4.468773,-0.3746 1.6017,-0.34351 2.327953,-1.39891 1.810114,-2.63049 -0.162465,-0.38639 -0.494285,-0.6647 -1.161843,-0.97449 -0.897929,-0.41669 -1.540968,-0.58222 -6.23773,-1.60575 -2.558441,-0.55754 -5.092238,-1.43943 -6.405115,-2.22931 -1.133525,-0.68198 -2.822821,-2.43152 -2.989667,-3.09629 -0.176736,-0.70417 0.460199,-1.12529 3.021147,-1.99748 2.479382,-0.8444 3.613597,-1.53601 4.372728,-2.66632 0.695572,-1.03569 0.662147,-1.74383 -0.123353,-2.61328 -1.203774,-1.33243 -5.653099,-3.99967 -7.861878,-4.71297 -1.304914,-0.4214 -2.804126,-1.91048 -3.586492,-3.56224 -0.50252,-1.060943 -0.569506,-1.379106 -0.569506,-2.704969 0,-1.234669 0.07704,-1.66021 0.432061,-2.386486 0.585149,-1.19706 1.984548,-2.526287 3.49562,-3.320333 1.495182,-0.785696 2.272754,-0.838369 3.319605,-0.224873 0.92988,0.544945 1.552134,1.314473 3.674214,4.543816 0.935929,1.42428 1.92898,2.751445 2.20678,2.949256 2.34688,1.671129 4.172116,-0.920749 6.074953,-8.626567 0.963553,-3.902055 1.080125,-4.237454 1.663131,-4.78516 0.36198,-0.340063 0.540815,-0.378787 1.290199,-0.279378 2.565737,0.340357 5.385799,1.87548 6.156408,3.351287 0.356468,0.682679 1.116769,4.094296 1.118747,5.020037 0.002,0.925286 0.475793,2.20712 1.210629,3.275168 l 0.556836,0.809333 -1.85369,1.63458 c -2.345423,2.068189 -3.807096,3.783009 -4.637363,5.440489 -1.535758,3.06589 -0.667907,5.54392 2.62591,7.49794 1.759048,1.04353 3.21819,1.42004 5.159808,1.33141 1.452282,-0.0663 1.801678,-0.15458 3.303433,-0.83467 1.359998,-0.61589 1.936329,-0.77792 3.030483,-0.85196 1.191089,-0.0806 1.469148,-0.0374 2.347812,0.36487 1.937234,0.8869 3.983696,3.29473 5.393156,6.3455 1.54584,3.34596 2.024044,6.1383 2.036462,11.89137 0.009,4.16584 -0.228842,5.79015 -0.954668,6.51991 -0.323989,0.32575 -0.342415,0.32456 -0.878319,-0.057 -0.301061,-0.21438 -1.113475,-1.18819 -1.805362,-2.16403 -2.860286,-4.03416 -5.368537,-6.60776 -7.469743,-7.66435 -2.227563,-1.12013 -3.74628,-0.74153 -4.579261,1.14156 -0.676733,1.52987 -0.368533,4.89454 0.736263,8.03788 0.215013,0.61175 0.876692,1.66999 1.750549,2.7997 1.73373,2.24133 2.395791,3.3143 2.784086,4.51202 0.262861,0.81081 0.274186,1.1123 0.08964,2.38648 -0.243167,1.67893 -1.497484,5.72086 -1.925669,6.20531 -0.455487,0.51533 -1.118341,0.79427 -3.695848,1.55524 -4.106119,1.21228 -6.67369,1.50945 -8.234244,0.95304 z"
     id="path5788"
     inkscape:connector-curvature="0" />
  <path
     style="fill:#b37649;fill-opacity:1;stroke:#0000bb;stroke-width:0.17677669;stroke-opacity:1"
     d="m 109.92325,168.26043 c -0.75486,-0.50636 -1.83213,-2.60417 -2.13717,-4.16176 -0.20875,-1.06595 -0.18279,-1.29447 0.56235,-4.94975 0.6354,-3.11689 0.78272,-4.19517 0.7893,-5.77675 0.007,-1.61282 -0.0497,-2.03998 -0.3305,-2.504 -0.67833,-1.12087 -1.97126,-1.25252 -3.61999,-0.36862 -1.72662,0.92567 -3.98223,2.83328 -4.70617,3.98009 -0.352,0.55762 -1.302399,2.06388 -2.111992,3.34724 -3.33997,5.2945 -6.219858,7.87563 -9.076195,8.13463 -1.351104,0.12252 -1.823223,-5.3e-4 -2.592568,-0.6761 -1.586346,-1.39283 -1.566958,-4.65458 0.07263,-12.21948 1.112572,-5.1333 0.990068,-5.94637 -0.873278,-5.79603 -1.618299,0.13058 -5.962008,4.67977 -7.9048,8.27875 -0.73494,1.36146 -1.074128,1.801 -1.389811,1.801 -0.430582,0 -1.257385,-0.87385 -1.812849,-1.91601 -0.599736,-1.12522 -0.710432,-2.03149 -0.317168,-2.59665 0.361772,-0.51991 1.646102,-4.58986 1.888391,-5.98418 0.303793,-1.74825 0.146037,-3.33972 -0.457404,-4.61434 -0.27534,-0.58158 -1.242001,-2.03215 -2.148137,-3.22349 -1.730775,-2.27552 -1.942538,-2.67978 -2.526441,-4.82308 -1.030384,-3.78216 -0.409103,-6.76744 1.349032,-6.48213 2.113343,0.34294 4.806619,2.79359 8.109349,7.3788 1.9046,2.64417 2.667403,3.34597 3.636821,3.34597 0.573819,0 0.825128,-0.10819 1.211129,-0.5214 1.343273,-1.43798 1.763878,-6.95138 0.978409,-12.82524 -0.143017,-1.0695 -0.260691,-1.98869 -0.261499,-2.04265 -8.13e-4,-0.054 0.61504,-0.20083 1.368551,-0.32637 1.750133,-0.2916 3.832388,-1.09111 4.694636,-1.80258 0.370131,-0.30541 0.982291,-0.97401 1.360356,-1.48578 1.563157,-2.11597 4.09781,-2.45478 5.596318,-0.74807 1.28223,1.46038 1.35399,3.42066 0.27654,7.5545 -0.852811,3.27197 -1.186576,5.71774 -1.046449,7.66814 0.21064,2.93185 1.269246,4.96726 3.128159,6.01459 0.92501,0.52117 1.06679,0.54765 2.91681,0.54481 1.72853,-0.003 2.05605,-0.055 2.94832,-0.47079 0.55207,-0.2573 1.34757,-0.7756 1.76776,-1.15179 0.4202,-0.37619 1.10427,-0.91251 1.52017,-1.19181 1.02224,-0.68651 1.74984,-1.72469 2.00368,-2.85896 0.38155,-1.70493 -0.17239,-3.23936 -2.88109,-7.98081 -1.71841,-3.008 -2.30017,-4.54257 -2.40217,-6.33649 -0.11043,-1.9421 0.10255,-2.33006 2.70129,-4.92066 1.62935,-1.62426 2.28443,-2.41679 2.74844,-3.32513 0.33507,-0.65592 0.65162,-1.19288 0.70345,-1.19324 0.0518,-3.5e-4 0.80756,0.52742 1.67938,1.17285 2.02111,1.49625 3.095,2.00452 4.23995,2.00675 1.30084,0.003 2.0292,-0.5579 2.81173,-2.1635 0.77042,-1.58075 0.98275,-2.87836 0.98447,-6.01637 0.002,-3.62818 0.34693,-4.19312 2.55974,-4.19233 2.40156,8.7e-4 6.05446,1.29272 7.07084,2.50062 0.9882,1.17441 0.41379,2.30973 -3.16188,6.24938 -4.01555,4.42433 -5.14139,6.53577 -5.02622,9.4264 0.0527,1.32179 0.14643,1.71517 0.65491,2.7474 1.12945,2.29284 4.50006,5.11518 8.57858,7.18317 1.95911,0.99336 3.37656,1.15641 4.5109,0.51888 2.09468,-1.17728 2.87923,-4.27431 3.28851,-12.98155 0.18301,-3.89345 0.36457,-4.97892 1.07415,-6.42161 1.39567,-2.83768 4.81288,-5.32904 7.51919,-5.48196 0.66805,-0.0377 1.48213,-0.0184 1.80907,0.0429 1.57921,0.29626 3.31036,2.23708 4.01202,4.49794 0.73348,2.36343 0.92656,4.40862 0.76183,8.06984 -0.22391,4.97674 -0.13394,9.47409 0.21364,10.67854 0.43557,1.50937 1.26315,2.92202 2.2648,3.86594 0.49829,0.46956 1.9799,1.61716 3.29246,2.55021 2.86551,2.03698 3.25857,2.4315 3.71428,3.72808 0.44536,1.26713 0.44206,1.7713 -0.0178,2.72132 -0.46452,0.95957 -1.38459,1.7259 -2.63578,2.19534 -1.22822,0.46083 -1.99488,0.35515 -3.53553,-0.48735 -1.35218,-0.73943 -2.20438,-1.40796 -4.24388,-3.32928 -1.94426,-1.83159 -5.13249,-3.7252 -7.41157,-4.40202 -1.19047,-0.35353 -4.45271,-0.3785 -5.86991,-0.0449 -1.54452,0.36355 -2.05706,0.75697 -2.91138,2.23474 -0.91365,1.58041 -1.38791,3.26234 -1.22542,4.34592 0.27416,1.82821 0.93502,2.68623 5.86858,7.61941 2.55863,2.55842 4.72679,4.65168 4.81813,4.65168 0.0913,0 0.38446,0.44638 0.65138,0.99196 0.66883,1.36703 0.79751,3.37496 0.28985,4.52262 -0.63024,1.42475 -2.22919,2.2636 -4.31472,2.2636 -2.14167,0 -4.02524,-1.53013 -5.53881,-4.49951 -1.34497,-2.6386 -2.3976,-3.31083 -3.60003,-2.29906 -0.93732,0.78871 -1.72395,3.5261 -1.90287,6.62179 -0.0534,0.92366 -0.17606,1.9393 -0.27263,2.25698 -0.25444,0.83707 -1.01058,1.18603 -2.5326,1.16879 -3.14891,-0.0357 -5.49525,-2.09621 -5.70365,-5.00892 -0.14282,-1.99609 0.38548,-3.60993 2.69348,-8.22796 2.28375,-4.56949 2.72931,-5.90471 2.39041,-7.16331 -0.43794,-1.62639 -2.18469,-2.52558 -4.94871,-2.54749 -1.23693,-0.01 -1.65219,0.0618 -2.34869,0.4047 -1.77996,0.87646 -3.66992,3.08831 -4.91824,5.75589 -0.42187,0.90153 -0.7705,2.30666 -1.48567,5.988 -1.10639,5.69513 -2.15057,10.42951 -2.46778,11.18915 -0.32356,0.77484 -1.4463,1.81853 -2.47981,2.30522 -1.13816,0.53598 -2.15222,0.54177 -2.93487,0.0168 z"
     id="path5790"
     inkscape:connector-curvature="0" />
</svg>
