<?xml version="1.0" encoding="UTF-8" standalone="no"?>
<!-- Created with Inkscape (http://www.inkscape.org/) -->

<svg
   xmlns:dc="http://purl.org/dc/elements/1.1/"
   xmlns:cc="http://creativecommons.org/ns#"
   xmlns:rdf="http://www.w3.org/1999/02/22-rdf-syntax-ns#"
   xmlns:svg="http://www.w3.org/2000/svg"
   xmlns="http://www.w3.org/2000/svg"
   xmlns:xlink="http://www.w3.org/1999/xlink"
   xmlns:sodipodi="http://sodipodi.sourceforge.net/DTD/sodipodi-0.dtd"
   xmlns:inkscape="http://www.inkscape.org/namespaces/inkscape"
   width="300"
   height="300"
   id="svg3177"
   version="1.1"
   inkscape:version="0.47 r22583"
   sodipodi:docname="MiToBo_logo.pdf">
  <defs
     id="defs3179">
    <inkscape:perspective
       sodipodi:type="inkscape:persp3d"
       inkscape:vp_x="0 : 526.18109 : 1"
       inkscape:vp_y="0 : 1000 : 0"
       inkscape:vp_z="744.09448 : 526.18109 : 1"
       inkscape:persp3d-origin="372.04724 : 350.78739 : 1"
       id="perspective3185" />
    <inkscape:perspective
       id="perspective3195"
       inkscape:persp3d-origin="0.5 : 0.33333333 : 1"
       inkscape:vp_z="1 : 0.5 : 1"
       inkscape:vp_y="0 : 1000 : 0"
       inkscape:vp_x="0 : 0.5 : 1"
       sodipodi:type="inkscape:persp3d" />
    <linearGradient
       inkscape:collect="always"
       xlink:href="#linearGradient3777"
       id="linearGradient3057"
       gradientUnits="userSpaceOnUse"
       gradientTransform="translate(0,2.7900391e-5)"
       x1="0.057891846"
       y1="912.36212"
       x2="279.94211"
       y2="912.36212" />
    <linearGradient
       id="linearGradient3777">
      <stop
         style="stop-color:#6473ff;stop-opacity:1;"
         offset="0"
         id="stop3779" />
      <stop
         style="stop-color:#ffffff;stop-opacity:0;"
         offset="1"
         id="stop3781" />
    </linearGradient>
    <inkscape:path-effect
       effect="spiro"
       id="path-effect2984"
       is_visible="true" />
    <inkscape:path-effect
       effect="spiro"
       id="path-effect4054"
       is_visible="true" />
    <inkscape:path-effect
       effect="spiro"
       id="path-effect4146"
       is_visible="true" />
    <linearGradient
       inkscape:collect="always"
       xlink:href="#linearGradient3777"
       id="linearGradient3584"
       gradientUnits="userSpaceOnUse"
       gradientTransform="matrix(1.0718718,0,0,1.0718718,-0.06205741,-75.57306)"
       x1="0.057891846"
       y1="912.36212"
       x2="279.94211"
       y2="912.36212" />
    <linearGradient
       inkscape:collect="always"
       xlink:href="#linearGradient3777"
       id="linearGradient4640"
       gradientUnits="userSpaceOnUse"
       gradientTransform="matrix(1.0718718,0,0,1.0718718,-0.06205741,-75.57306)"
       x1="0.057891846"
       y1="912.36212"
       x2="279.94211"
       y2="912.36212" />
    <linearGradient
       inkscape:collect="always"
       xlink:href="#linearGradient3777"
       id="linearGradient4696"
       gradientUnits="userSpaceOnUse"
       gradientTransform="matrix(1.0718718,0,0,1.0718718,-0.06205741,-75.573047)"
       x1="0.057891846"
       y1="912.36212"
       x2="279.94211"
       y2="912.36212" />
  </defs>
  <sodipodi:namedview
     id="base"
     pagecolor="#ffffff"
     bordercolor="#666666"
     borderopacity="1.0"
     inkscape:pageopacity="0.0"
     inkscape:pageshadow="2"
     inkscape:zoom="2"
     inkscape:cx="156.90815"
     inkscape:cy="136.19048"
     inkscape:document-units="px"
     inkscape:current-layer="layer1"
     showgrid="false"
     inkscape:window-width="1280"
     inkscape:window-height="948"
     inkscape:window-x="1680"
     inkscape:window-y="25"
     inkscape:window-maximized="1" />
  <metadata
     id="metadata3182">
    <rdf:RDF>
      <cc:Work
         rdf:about="">
        <dc:format>image/svg+xml</dc:format>
        <dc:type
           rdf:resource="http://purl.org/dc/dcmitype/StillImage" />
        <dc:title></dc:title>
      </cc:Work>
    </rdf:RDF>
  </metadata>
  <g
     inkscape:label="Layer 1"
     inkscape:groupmode="layer"
     id="layer1"
     transform="translate(0,-752.36218)">
    <g
       id="g4738">
      <flowRoot
         style="font-size:10px;font-style:normal;font-variant:normal;font-weight:normal;font-stretch:normal;fill:#000000;fill-opacity:1;stroke:none;font-family:Arial;-inkscape-font-specification:Arial"
         id="flowRoot2871"
         xml:space="preserve"
         transform="translate(7.5,-19.06251)"><flowRegion
           id="flowRegion2873"><rect
             y="79.498749"
             x="-81.704262"
             height="40.10025"
             width="71.428574"
             id="rect2875" /></flowRegion><flowPara
           id="flowPara2877" /></flowRoot>      <flowRoot
         style="font-size:10px;font-style:normal;font-variant:normal;font-weight:normal;font-stretch:normal;fill:#000000;fill-opacity:1;stroke:none;font-family:Arial;-inkscape-font-specification:Arial"
         id="flowRoot2879"
         xml:space="preserve"
         transform="translate(7.5,-19.06251)"><flowRegion
           id="flowRegion2881"><rect
             y="72.230576"
             x="-80.2005"
             height="41.102757"
             width="63.659149"
             id="rect2883" /></flowRegion><flowPara
           id="flowPara2885" /></flowRoot>      <flowRoot
         style="font-size:10px;font-style:normal;font-variant:normal;font-weight:normal;font-stretch:normal;fill:#000000;fill-opacity:1;stroke:none;font-family:Arial;-inkscape-font-specification:Arial"
         id="flowRoot2887"
         xml:space="preserve"
         transform="translate(7.5,-19.06251)"><flowRegion
           id="flowRegion2889"><rect
             y="85.764412"
             x="-59.398495"
             height="29.072681"
             width="28.070175"
             id="rect2891" /></flowRegion><flowPara
           id="flowPara2893" /></flowRoot>      <flowRoot
         style="font-size:10px;font-style:normal;font-variant:normal;font-weight:normal;font-stretch:normal;fill:#000000;fill-opacity:1;stroke:none;font-family:Arial;-inkscape-font-specification:Arial"
         id="flowRoot2895"
         xml:space="preserve"
         transform="translate(7.5,-19.06251)"><flowRegion
           id="flowRegion2897"><rect
             y="81.253136"
             x="-70.426064"
             height="22.305765"
             width="38.847118"
             id="rect2899" /></flowRegion><flowPara
           id="flowPara2901" /></flowRoot>      <rect
         y="790.13007"
         x="110.4447"
         height="99.000694"
         width="34.000694"
         id="rect3779"
         style="fill:#ffffff;fill-opacity:1;stroke:#000000;stroke-width:1.25;stroke-miterlimit:4;stroke-opacity:1;stroke-dasharray:none;stroke-dashoffset:0" />
      <rect
         y="768.20483"
         x="118.20795"
         height="26.43746"
         width="18.92709"
         id="rect3779-4"
         style="fill:#ffffff;fill-opacity:1;stroke:#000000;stroke-width:1.25;stroke-miterlimit:4;stroke-opacity:1;stroke-dasharray:none;stroke-dashoffset:0" />
      <path
         sodipodi:nodetypes="csc"
         inkscape:original-d="m 233.94507,945.63042 c 0,0 10.51515,-27.75759 1.42424,-42.9091 -9.09091,-15.15152 -6.58333,-113.15151 -90.67424,-82.09091"
         inkscape:path-effect="#path-effect2984"
         id="path2982"
         d="m 233.94507,945.63042 c 3.54226,-13.97995 4.03168,-28.72503 1.42424,-42.9091 -3.96152,-21.55 -15.18966,-41.69793 -31.43286,-56.40353 -16.2432,-14.70559 -37.40484,-23.8814 -59.24138,-25.68738"
         style="fill:none;stroke:#000000;stroke-width:1.25;stroke-linecap:butt;stroke-linejoin:miter;stroke-miterlimit:4;stroke-opacity:1;stroke-dasharray:none" />
      <path
         d="m 20.092419,868.86168 -1.40625,0 0,-8.96092 c -0.33855,0.32291 -0.78386,0.64584 -1.33594,0.96875 -0.54688,0.32291 -1.03907,0.56511 -1.47657,0.72655 l 0,-1.35938 c 0.78646,-0.36978 1.47396,-0.81769 2.06251,-1.34375 0.58853,-0.52603 1.0052,-1.03643 1.25,-1.53125 l 0.90625,0 0,11.5"
         style="font-size:16px;font-style:normal;font-variant:normal;font-weight:normal;font-stretch:normal;fill:#000000;fill-opacity:1;stroke:none;font-family:Arial;-inkscape-font-specification:Arial"
         id="path2996" />
      <path
         d="m 21.751409,858.88475 c 0,-1.35416 0.13802,-2.44271 0.41406,-3.26563 0.28125,-0.82812 0.69531,-1.46614 1.24219,-1.91405 0.55208,-0.44791 1.24479,-0.67188 2.07812,-0.67188 0.61458,0 1.15364,0.125 1.61719,0.375 0.46353,0.24481 0.84634,0.60158 1.14843,1.07032 0.30208,0.46355 0.53906,1.03125 0.71094,1.70312 0.17187,0.66667 0.25781,1.56772 0.25781,2.70313 0,1.34375 -0.13802,2.42969 -0.41406,3.25781 -0.27605,0.82291 -0.69011,1.46094 -1.24219,1.91405 -0.54688,0.44792 -1.23958,0.67187 -2.07812,0.67188 -1.10416,-1e-5 -1.97135,-0.39584 -2.60156,-1.1875 -0.75521,-0.95313 -1.13281,-2.50521 -1.13281,-4.65625 m 1.44531,0 c 0,1.88021 0.21875,3.13281 0.65625,3.75781 0.44271,0.61979 0.98698,0.92969 1.63281,0.92969 0.64583,0 1.1875,-0.3125 1.625,-0.9375 0.4427,-0.625 0.66405,-1.875 0.66406,-3.75 -10e-6,-1.88541 -0.22136,-3.13802 -0.66406,-3.75782 -0.4375,-0.61978 -0.98438,-0.92967 -1.64062,-0.92968 -0.64584,10e-6 -1.16146,0.27344 -1.54687,0.82031 -0.48438,0.69792 -0.72657,1.98698 -0.72657,3.86719"
         style="font-size:16px;font-style:normal;font-variant:normal;font-weight:normal;font-stretch:normal;fill:#000000;fill-opacity:1;stroke:none;font-family:Arial;-inkscape-font-specification:Arial"
         id="path2998" />
      <path
         d="m 30.362189,857.62476 c 0,-1.35416 0.13802,-2.44271 0.41406,-3.26563 0.28125,-0.82812 0.69531,-1.46614 1.24219,-1.91406 0.55208,-0.4479 1.24479,-0.67187 2.07813,-0.67188 0.61457,10e-6 1.15364,0.12501 1.61718,0.375 0.46354,0.24482 0.84635,0.60159 1.14844,1.07033 0.30208,0.46355 0.53905,1.03125 0.71094,1.70312 0.17186,0.66667 0.2578,1.56772 0.25781,2.70313 -1e-5,1.34375 -0.13803,2.42969 -0.41406,3.2578 -0.27605,0.82292 -0.69011,1.46095 -1.24219,1.91406 -0.54688,0.44792 -1.23959,0.67187 -2.07812,0.67188 -1.10418,-1e-5 -1.97136,-0.39584 -2.60157,-1.1875 -0.75521,-0.95313 -1.13281,-2.50521 -1.13281,-4.65625 m 1.44531,0 c 0,1.88021 0.21875,3.13281 0.65625,3.75781 0.44271,0.61979 0.98698,0.92969 1.63282,0.92969 0.64582,0 1.18749,-0.3125 1.625,-0.9375 0.4427,-0.625 0.66405,-1.875 0.66406,-3.75 -1e-5,-1.88541 -0.22136,-3.13802 -0.66406,-3.75782 -0.43751,-0.61978 -0.98439,-0.92967 -1.64063,-0.92968 -0.64584,10e-6 -1.16146,0.27344 -1.54687,0.82031 -0.48438,0.69792 -0.72657,1.98698 -0.72657,3.86719"
         style="font-size:16px;font-style:normal;font-variant:normal;font-weight:normal;font-stretch:normal;fill:#000000;fill-opacity:1;stroke:none;font-family:Arial;-inkscape-font-specification:Arial"
         id="path3000" />
      <path
         d="m 38.369659,863.69639 c 0,-1.35416 0.13802,-2.44271 0.41406,-3.26563 0.28125,-0.82812 0.69531,-1.46614 1.24219,-1.91405 0.55208,-0.44791 1.24479,-0.67187 2.07813,-0.67188 0.61457,10e-6 1.15364,0.12501 1.61719,0.375 0.46353,0.24481 0.84635,0.60158 1.14844,1.07032 0.30207,0.46355 0.53905,1.03125 0.71094,1.70312 0.17186,0.66667 0.2578,1.56772 0.25781,2.70313 -1e-5,1.34375 -0.13803,2.42969 -0.41406,3.25781 -0.27605,0.82291 -0.69012,1.46094 -1.24219,1.91405 -0.54689,0.44792 -1.2396,0.67187 -2.07813,0.67188 -1.10417,-10e-6 -1.97136,-0.39584 -2.60157,-1.1875 -0.75521,-0.95313 -1.13281,-2.50521 -1.13281,-4.65625 m 1.44531,0 c 0,1.88021 0.21875,3.13281 0.65625,3.75781 0.44271,0.61979 0.98698,0.92969 1.63282,0.92969 0.64582,0 1.18749,-0.3125 1.625,-0.9375 0.4427,-0.625 0.66406,-1.875 0.66406,-3.75 0,-1.88541 -0.22136,-3.13802 -0.66406,-3.75782 -0.43751,-0.61978 -0.98438,-0.92967 -1.64063,-0.92968 -0.64584,1e-5 -1.16146,0.27345 -1.54687,0.82031 -0.48438,0.69792 -0.72657,1.98698 -0.72657,3.86719"
         style="font-size:16px;font-style:normal;font-variant:normal;font-weight:normal;font-stretch:normal;fill:#000000;fill-opacity:1;stroke:none;font-family:Arial;-inkscape-font-specification:Arial"
         id="path3002" />
      <path
         d="m 44.647889,874.11838 c 0,-1.35416 0.13802,-2.44271 0.41406,-3.26563 0.28125,-0.82812 0.69531,-1.46614 1.24219,-1.91406 0.55208,-0.44791 1.24479,-0.67187 2.07812,-0.67188 0.61458,1e-5 1.15364,0.12501 1.61719,0.375 0.46354,0.24481 0.84635,0.60158 1.14844,1.07033 0.30207,0.46355 0.53905,1.03125 0.71094,1.70312 0.17186,0.66666 0.2578,1.56772 0.25781,2.70313 -10e-6,1.34375 -0.13803,2.42969 -0.41406,3.2578 -0.27605,0.82292 -0.69012,1.46095 -1.24219,1.91406 -0.54688,0.44792 -1.23959,0.67187 -2.07813,0.67188 -1.10417,-10e-6 -1.97135,-0.39584 -2.60156,-1.1875 -0.75521,-0.95313 -1.13281,-2.50521 -1.13281,-4.65625 m 1.44531,0 c 0,1.88021 0.21875,3.13281 0.65625,3.75781 0.44271,0.61979 0.98698,0.92969 1.63281,0.92969 0.64583,0 1.1875,-0.3125 1.625,-0.9375 0.4427,-0.625 0.66406,-1.875 0.66407,-3.75 -1e-5,-1.88541 -0.22137,-3.13802 -0.66407,-3.75782 -0.4375,-0.61978 -0.98438,-0.92967 -1.64062,-0.92968 -0.64584,10e-6 -1.16146,0.27344 -1.54688,0.82031 -0.48437,0.69792 -0.72656,1.98698 -0.72656,3.86719"
         style="font-size:16px;font-style:normal;font-variant:normal;font-weight:normal;font-stretch:normal;fill:#000000;fill-opacity:1;stroke:none;font-family:Arial;-inkscape-font-specification:Arial"
         id="path3004" />
      <path
         d="m 53.832199,891.5136 -1.40625,0 0,-8.96092 c -0.33854,0.32291 -0.78385,0.64584 -1.33593,0.96875 -0.54688,0.32291 -1.03907,0.56511 -1.47657,0.72655 l 0,-1.35938 c 0.78646,-0.36977 1.47396,-0.81769 2.0625,-1.34375 0.58854,-0.52602 1.00521,-1.03643 1.25,-1.53125 l 0.90625,0 0,11.5"
         style="font-size:16px;font-style:normal;font-variant:normal;font-weight:normal;font-stretch:normal;fill:#000000;fill-opacity:1;stroke:none;font-family:Arial;-inkscape-font-specification:Arial"
         id="path3006" />
      <path
         d="m 49.695289,899.56085 c 0,-1.35416 0.13802,-2.44271 0.41407,-3.26563 0.28124,-0.82812 0.69531,-1.46614 1.24218,-1.91405 0.55208,-0.44791 1.24479,-0.67187 2.07813,-0.67188 0.61458,10e-6 1.15364,0.12501 1.61719,0.375 0.46353,0.24481 0.84634,0.60158 1.14843,1.07032 0.30208,0.46355 0.53906,1.03125 0.71094,1.70312 0.17187,0.66667 0.2578,1.56772 0.25781,2.70313 -1e-5,1.34375 -0.13803,2.42969 -0.41406,3.25781 -0.27605,0.82291 -0.69011,1.46094 -1.24219,1.91405 -0.54688,0.44792 -1.23959,0.67187 -2.07812,0.67188 -1.10417,-10e-6 -1.97136,-0.39584 -2.60156,-1.1875 -0.75521,-0.95313 -1.13282,-2.50521 -1.13282,-4.65625 m 1.44532,0 c -10e-6,1.88021 0.21874,3.13281 0.65625,3.75781 0.4427,0.61979 0.98697,0.92969 1.63281,0.92969 0.64583,0 1.18749,-0.3125 1.625,-0.9375 0.4427,-0.625 0.66405,-1.875 0.66406,-3.75 -1e-5,-1.88541 -0.22136,-3.13802 -0.66406,-3.75782 -0.43751,-0.61978 -0.98438,-0.92967 -1.64063,-0.92968 -0.64583,1e-5 -1.16146,0.27345 -1.54687,0.82031 -0.48438,0.69792 -0.72657,1.98698 -0.72656,3.86719"
         style="font-size:16px;font-style:normal;font-variant:normal;font-weight:normal;font-stretch:normal;fill:#000000;fill-opacity:1;stroke:none;font-family:Arial;-inkscape-font-specification:Arial"
         id="path3008" />
      <path
         d="m 51.978459,912.35549 c 0,-1.35416 0.13802,-2.44271 0.41407,-3.26563 0.28124,-0.82812 0.69531,-1.46614 1.24218,-1.91406 0.55208,-0.4479 1.24479,-0.67187 2.07813,-0.67188 0.61458,10e-6 1.15364,0.12501 1.61719,0.375 0.46353,0.24482 0.84634,0.60159 1.14843,1.07033 0.30208,0.46355 0.53906,1.03125 0.71094,1.70312 0.17187,0.66666 0.2578,1.56772 0.25781,2.70313 -1e-5,1.34375 -0.13803,2.42969 -0.41406,3.2578 -0.27605,0.82292 -0.69011,1.46095 -1.24219,1.91406 -0.54688,0.44792 -1.23959,0.67187 -2.07812,0.67188 -1.10417,-1e-5 -1.97136,-0.39584 -2.60156,-1.1875 -0.75521,-0.95313 -1.13282,-2.50521 -1.13282,-4.65625 m 1.44532,0 c -1e-5,1.88021 0.21874,3.13281 0.65625,3.75781 0.4427,0.61979 0.98697,0.92969 1.63281,0.92969 0.64583,0 1.18749,-0.3125 1.625,-0.9375 0.4427,-0.625 0.66405,-1.875 0.66406,-3.75 -1e-5,-1.88541 -0.22136,-3.13802 -0.66406,-3.75782 -0.43751,-0.61978 -0.98438,-0.92967 -1.64063,-0.92968 -0.64583,10e-6 -1.16146,0.27344 -1.54687,0.82031 -0.48438,0.69792 -0.72657,1.98698 -0.72656,3.86719"
         style="font-size:16px;font-style:normal;font-variant:normal;font-weight:normal;font-stretch:normal;fill:#000000;fill-opacity:1;stroke:none;font-family:Arial;-inkscape-font-specification:Arial"
         id="path3010" />
      <path
         d="m 60.169969,917.37133 c 0,-1.35416 0.13802,-2.44271 0.41406,-3.26563 0.28125,-0.82812 0.69531,-1.46614 1.24219,-1.91405 0.55208,-0.44791 1.24479,-0.67188 2.07812,-0.67188 0.61458,0 1.15364,0.125 1.61719,0.375 0.46354,0.24481 0.84635,0.60158 1.14844,1.07032 0.30207,0.46355 0.53905,1.03125 0.71094,1.70312 0.17186,0.66667 0.2578,1.56772 0.25781,2.70313 -10e-6,1.34375 -0.13803,2.42969 -0.41406,3.25781 -0.27605,0.82291 -0.69011,1.46094 -1.24219,1.91405 -0.54688,0.44792 -1.23959,0.67187 -2.07813,0.67188 -1.10417,-10e-6 -1.97135,-0.39584 -2.60156,-1.1875 -0.75521,-0.95313 -1.13281,-2.50521 -1.13281,-4.65625 m 1.44531,0 c 0,1.88021 0.21875,3.13281 0.65625,3.75781 0.44271,0.61979 0.98698,0.92969 1.63281,0.92969 0.64583,0 1.1875,-0.3125 1.625,-0.9375 0.44271,-0.625 0.66406,-1.875 0.66407,-3.75 -1e-5,-1.88541 -0.22136,-3.13802 -0.66407,-3.75782 -0.4375,-0.61978 -0.98438,-0.92967 -1.64062,-0.92968 -0.64584,1e-5 -1.16146,0.27344 -1.54688,0.82031 -0.48437,0.69792 -0.72656,1.98698 -0.72656,3.86719"
         style="font-size:16px;font-style:normal;font-variant:normal;font-weight:normal;font-stretch:normal;fill:#000000;fill-opacity:1;stroke:none;font-family:Arial;-inkscape-font-specification:Arial"
         id="path3012" />
      <path
         d="m 73.167589,925.62692 -1.40625,0 0,-8.96093 c -0.33854,0.32292 -0.78385,0.64584 -1.33593,0.96875 -0.54688,0.32292 -1.03907,0.56511 -1.47657,0.72656 l 0,-1.35938 c 0.78646,-0.36978 1.47396,-0.8177 2.0625,-1.34375 0.58854,-0.52603 1.00521,-1.03644 1.25,-1.53125 l 0.90625,0 0,11.5"
         style="font-size:16px;font-style:normal;font-variant:normal;font-weight:normal;font-stretch:normal;fill:#000000;fill-opacity:1;stroke:none;font-family:Arial;-inkscape-font-specification:Arial"
         id="path3014" />
      <path
         d="m 76.128799,923.81581 c 0,-1.35416 0.13802,-2.44271 0.41406,-3.26563 0.28125,-0.82812 0.69531,-1.46614 1.24219,-1.91405 0.55208,-0.44791 1.24479,-0.67188 2.07813,-0.67188 0.61457,0 1.15364,0.125 1.61718,0.375 0.46354,0.24481 0.84635,0.60158 1.14844,1.07032 0.30208,0.46355 0.53906,1.03125 0.71094,1.70312 0.17187,0.66667 0.2578,1.56772 0.25781,2.70313 -1e-5,1.34375 -0.13803,2.42969 -0.41406,3.25781 -0.27605,0.82291 -0.69011,1.46094 -1.24219,1.91405 -0.54688,0.44792 -1.23959,0.67187 -2.07812,0.67188 -1.10417,-1e-5 -1.97136,-0.39584 -2.60157,-1.1875 -0.75521,-0.95313 -1.13281,-2.50521 -1.13281,-4.65625 m 1.44531,0 c 0,1.88021 0.21875,3.13281 0.65625,3.75781 0.44271,0.61979 0.98698,0.92969 1.63282,0.92969 0.64582,0 1.18749,-0.3125 1.625,-0.9375 0.4427,-0.625 0.66405,-1.875 0.66406,-3.75 -10e-6,-1.88541 -0.22136,-3.13802 -0.66406,-3.75782 -0.43751,-0.61978 -0.98438,-0.92967 -1.64063,-0.92968 -0.64584,10e-6 -1.16146,0.27344 -1.54687,0.82031 -0.48438,0.69792 -0.72657,1.98698 -0.72657,3.86719"
         style="font-size:16px;font-style:normal;font-variant:normal;font-weight:normal;font-stretch:normal;fill:#000000;fill-opacity:1;stroke:none;font-family:Arial;-inkscape-font-specification:Arial"
         id="path3016" />
      <path
         d="m 85.824609,924.3138 c 0,-1.35416 0.13802,-2.44271 0.41406,-3.26563 0.28125,-0.82812 0.69532,-1.46614 1.24219,-1.91406 0.552081,-0.44791 1.244791,-0.67187 2.078131,-0.67188 0.61458,10e-6 1.15364,0.12501 1.61718,0.375 0.46354,0.24482 0.84635,0.60158 1.14844,1.07033 0.30208,0.46355 0.53906,1.03125 0.71094,1.70312 0.17187,0.66666 0.2578,1.56772 0.25781,2.70313 -1e-5,1.34375 -0.13803,2.42969 -0.41406,3.2578 -0.27605,0.82292 -0.69011,1.46095 -1.24219,1.91406 -0.54688,0.44792 -1.23959,0.67187 -2.07812,0.67188 -1.10417,-10e-6 -1.971361,-0.39584 -2.601571,-1.1875 -0.7552,-0.95313 -1.13281,-2.50521 -1.13281,-4.65625 m 1.44531,0 c 0,1.88021 0.21875,3.13281 0.65625,3.75781 0.442711,0.61979 0.986981,0.92969 1.632821,0.92969 0.64583,0 1.18749,-0.3125 1.625,-0.9375 0.4427,-0.625 0.66405,-1.875 0.66406,-3.75 -1e-5,-1.88541 -0.22136,-3.13802 -0.66406,-3.75782 -0.43751,-0.61978 -0.98438,-0.92967 -1.64063,-0.92968 -0.64584,10e-6 -1.16146,0.27344 -1.546871,0.82031 -0.48438,0.69792 -0.72657,1.98698 -0.72657,3.86719"
         style="font-size:16px;font-style:normal;font-variant:normal;font-weight:normal;font-stretch:normal;fill:#000000;fill-opacity:1;stroke:none;font-family:Arial;-inkscape-font-specification:Arial"
         id="path3018" />
      <path
         d="m 96.22878,920.32761 c 0,-1.35416 0.13802,-2.44271 0.41406,-3.26563 0.28125,-0.82812 0.69531,-1.46614 1.24219,-1.91406 0.55208,-0.4479 1.24478,-0.67187 2.07812,-0.67187 0.61458,0 1.15364,0.125 1.61719,0.375 0.46353,0.24481 0.84635,0.60158 1.14844,1.07032 0.30207,0.46355 0.53905,1.03125 0.71093,1.70312 0.17187,0.66667 0.25781,1.56772 0.25782,2.70313 -1e-5,1.34375 -0.13803,2.42969 -0.41407,3.2578 -0.27605,0.82292 -0.69011,1.46095 -1.24218,1.91406 -0.54688,0.44792 -1.23959,0.67187 -2.07813,0.67188 -1.10417,-1e-5 -1.97136,-0.39584 -2.60156,-1.1875 -0.75521,-0.95313 -1.13281,-2.50521 -1.13281,-4.65625 m 1.44531,0 c 0,1.88021 0.21875,3.13281 0.65625,3.75781 0.4427,0.61979 0.98697,0.92969 1.63281,0.92969 0.64583,0 1.1875,-0.3125 1.625,-0.9375 0.4427,-0.625 0.66406,-1.875 0.66406,-3.75 0,-1.88541 -0.22136,-3.13802 -0.66406,-3.75782 -0.4375,-0.61978 -0.98438,-0.92967 -1.64062,-0.92968 -0.64584,10e-6 -1.16147,0.27344 -1.54688,0.82031 -0.48438,0.69792 -0.72656,1.98698 -0.72656,3.86719"
         style="font-size:16px;font-style:normal;font-variant:normal;font-weight:normal;font-stretch:normal;fill:#000000;fill-opacity:1;stroke:none;font-family:Arial;-inkscape-font-specification:Arial"
         id="path3020" />
      <path
         d="m 110.03136,923.32155 -1.40627,0 0,-8.96093 c -0.33855,0.32292 -0.78386,0.64584 -1.33594,0.96875 -0.54688,0.32292 -1.03907,0.56511 -1.47656,0.72656 l 0,-1.35938 c 0.78645,-0.36978 1.47395,-0.8177 2.0625,-1.34375 0.58853,-0.52603 1.0052,-1.03644 1.25,-1.53125 l 0.90627,0 0,11.5"
         style="font-size:16px;font-style:normal;font-variant:normal;font-weight:normal;font-stretch:normal;fill:#000000;fill-opacity:1;stroke:none;font-family:Arial;-inkscape-font-specification:Arial"
         id="path3022" />
      <path
         d="m 118.0158,924.95387 -1.40625,0 0,-8.96093 c -0.33855,0.32292 -0.78386,0.64584 -1.33594,0.96875 -0.54688,0.32292 -1.03906,0.56511 -1.47656,0.72656 l 0,-1.35938 c 0.78645,-0.36978 1.47395,-0.8177 2.0625,-1.34375 0.58853,-0.52603 1.0052,-1.03644 1.25,-1.53125 l 0.90625,0 0,11.5"
         style="font-size:16px;font-style:normal;font-variant:normal;font-weight:normal;font-stretch:normal;fill:#000000;fill-opacity:1;stroke:none;font-family:Arial;-inkscape-font-specification:Arial"
         id="path3024" />
      <path
         d="m 124.93188,931.54657 -1.40625,0 0,-8.96092 c -0.33855,0.32291 -0.78386,0.64584 -1.33594,0.96875 -0.54688,0.32291 -1.03906,0.56511 -1.47656,0.72655 l 0,-1.35938 c 0.78645,-0.36978 1.47395,-0.81769 2.0625,-1.34375 0.58853,-0.52603 1.0052,-1.03643 1.25,-1.53125 l 0.90625,0 0,11.5"
         style="font-size:16px;font-style:normal;font-variant:normal;font-weight:normal;font-stretch:normal;fill:#000000;fill-opacity:1;stroke:none;font-family:Arial;-inkscape-font-specification:Arial"
         id="path3026" />
      <path
         d="m 132.62472,931.72283 -1.40625,0 0,-8.96093 c -0.33855,0.32292 -0.78386,0.64584 -1.33594,0.96875 -0.54688,0.32292 -1.03906,0.56511 -1.47656,0.72656 l 0,-1.35938 c 0.78645,-0.36978 1.47395,-0.8177 2.0625,-1.34375 0.58853,-0.52603 1.0052,-1.03644 1.25,-1.53125 l 0.90625,0 0,11.5"
         style="font-size:16px;font-style:normal;font-variant:normal;font-weight:normal;font-stretch:normal;fill:#000000;fill-opacity:1;stroke:none;font-family:Arial;-inkscape-font-specification:Arial"
         id="path3028" />
      <path
         d="m 140.16502,931.36155 -1.40625,0 0,-8.96092 c -0.33855,0.32291 -0.78386,0.64584 -1.33594,0.96875 -0.54688,0.32291 -1.03906,0.56511 -1.47656,0.72655 l 0,-1.35938 c 0.78645,-0.36978 1.47395,-0.81769 2.0625,-1.34375 0.58853,-0.52603 1.0052,-1.03644 1.25,-1.53125 l 0.90625,0 0,11.5"
         style="font-size:16px;font-style:normal;font-variant:normal;font-weight:normal;font-stretch:normal;fill:#000000;fill-opacity:1;stroke:none;font-family:Arial;-inkscape-font-specification:Arial"
         id="path3030" />
      <path
         d="m 143.69867,925.98338 c 0,-1.35416 0.13802,-2.44271 0.41406,-3.26563 0.28125,-0.82812 0.69532,-1.46614 1.24219,-1.91406 0.55208,-0.44791 1.24479,-0.67187 2.07813,-0.67188 0.61458,10e-6 1.15364,0.12501 1.61718,0.375 0.46354,0.24482 0.84635,0.60158 1.14844,1.07033 0.30208,0.46355 0.53906,1.03125 0.71094,1.70312 0.17187,0.66666 0.2578,1.56772 0.25781,2.70313 -1e-5,1.34375 -0.13803,2.42969 -0.41406,3.2578 -0.27605,0.82292 -0.69011,1.46095 -1.24219,1.91406 -0.54688,0.44792 -1.23959,0.67187 -2.07812,0.67188 -1.10417,-10e-6 -1.97136,-0.39584 -2.60157,-1.1875 -0.7552,-0.95313 -1.13281,-2.50521 -1.13281,-4.65625 m 1.44531,0 c 0,1.88021 0.21875,3.13281 0.65625,3.75781 0.44271,0.61979 0.98698,0.92969 1.63282,0.92969 0.64583,0 1.18749,-0.3125 1.625,-0.9375 0.4427,-0.625 0.66405,-1.875 0.66406,-3.75 -10e-6,-1.88541 -0.22136,-3.13802 -0.66406,-3.75782 -0.43751,-0.61978 -0.98438,-0.92967 -1.64063,-0.92968 -0.64583,10e-6 -1.16146,0.27344 -1.54687,0.82031 -0.48438,0.69792 -0.72657,1.98698 -0.72657,3.86719"
         style="font-size:16px;font-style:normal;font-variant:normal;font-weight:normal;font-stretch:normal;fill:#000000;fill-opacity:1;stroke:none;font-family:Arial;-inkscape-font-specification:Arial"
         id="path3032" />
      <rect
         y="890.03473"
         x="132.13779"
         height="14.435639"
         width="9.2815323"
         id="rect3805"
         style="fill:#ffffff;fill-opacity:1;stroke:#000000;stroke-width:1.25;stroke-miterlimit:4;stroke-opacity:1;stroke-dasharray:none;stroke-dashoffset:0" />
      <path
         transform="matrix(1.0308215,0,0,1.0308215,-89.486771,810.63381)"
         d="m 229.33333,78.862183 a 10,5.8333335 0 1 1 -20,0 10,5.8333335 0 1 1 20,0 z"
         sodipodi:ry="5.8333335"
         sodipodi:rx="10"
         sodipodi:cy="78.862183"
         sodipodi:cx="219.33333"
         id="path3807"
         style="fill:#000000;fill-opacity:1;stroke:#000000;stroke-width:1.21262503;stroke-miterlimit:4;stroke-opacity:1;stroke-dasharray:none;stroke-dashoffset:0"
         sodipodi:type="arc" />
      <rect
         transform="matrix(0.87524981,0.48367114,-0.48367114,0.87524981,0,0)"
         y="720.73145"
         x="521.84003"
         height="14.43564"
         width="9.2815323"
         id="rect3805-5"
         style="fill:#ffffff;fill-opacity:1;stroke:#000000;stroke-width:1.25;stroke-miterlimit:4;stroke-opacity:1;stroke-dasharray:none;stroke-dashoffset:0" />
      <path
         transform="matrix(0.90222633,0.49857862,-0.49857862,0.90222633,-47.429461,706.52998)"
         d="m 229.33333,78.862183 a 10,5.8333335 0 1 1 -20,0 10,5.8333335 0 1 1 20,0 z"
         sodipodi:ry="5.8333335"
         sodipodi:rx="10"
         sodipodi:cy="78.862183"
         sodipodi:cx="219.33333"
         id="path3807-0"
         style="fill:#000000;fill-opacity:1;stroke:#000000;stroke-width:1.21262503;stroke-miterlimit:4;stroke-opacity:1;stroke-dasharray:none;stroke-dashoffset:0"
         sodipodi:type="arc" />
      <rect
         transform="matrix(0.29502928,0.95548821,-0.95548821,0.29502928,0,0)"
         y="162.44725"
         x="852.30377"
         height="14.43564"
         width="9.2815323"
         id="rect3805-5-0"
         style="fill:#ffffff;fill-opacity:1;stroke:#000000;stroke-width:1.25;stroke-miterlimit:4;stroke-opacity:1;stroke-dasharray:none;stroke-dashoffset:0" />
      <path
         transform="matrix(0.30412253,0.98493781,-0.98493781,0.30412253,106.71907,627.10767)"
         d="m 229.33333,78.862183 a 10,5.8333335 0 1 1 -20,0 10,5.8333335 0 1 1 20,0 z"
         sodipodi:ry="5.8333335"
         sodipodi:rx="10"
         sodipodi:cy="78.862183"
         sodipodi:cx="219.33333"
         id="path3807-0-2"
         style="fill:#000000;fill-opacity:1;stroke:#000000;stroke-width:1.21262503;stroke-miterlimit:4;stroke-opacity:1;stroke-dasharray:none;stroke-dashoffset:0"
         sodipodi:type="arc" />
      <path
         transform="matrix(0.95547269,0.25601814,-0.80821756,3.016309,23.663789,586.73474)"
         sodipodi:open="true"
         sodipodi:end="3.1415927"
         sodipodi:start="0"
         d="m 208.75,76.237183 a 35,10.125 0 1 1 -70,-10e-7"
         sodipodi:ry="10.125"
         sodipodi:rx="35"
         sodipodi:cy="76.237183"
         sodipodi:cx="173.75"
         id="path4050"
         style="fill:#ffffff;fill-opacity:1;stroke:#000000;stroke-width:0.71122456;stroke-miterlimit:4;stroke-opacity:1;stroke-dasharray:none;stroke-dashoffset:0"
         sodipodi:type="arc" />
      <path
         inkscape:original-d="M 161.86932,870.22781 94.25451,852.11048"
         inkscape:path-effect="#path-effect4054"
         id="path4052"
         d="M 161.86932,870.22781 94.25451,852.11048"
         style="fill:none;stroke:#000000;stroke-width:1.25;stroke-linecap:butt;stroke-linejoin:miter;stroke-miterlimit:4;stroke-opacity:1;stroke-dasharray:none" />
      <rect
         y="762.98718"
         x="112.52554"
         height="9.7466869"
         width="29.706915"
         id="rect3779-4-1"
         style="fill:#000000;fill-opacity:1;stroke:#000000;stroke-width:1.25;stroke-miterlimit:4;stroke-opacity:1;stroke-dasharray:none;stroke-dashoffset:0" />
      <rect
         y="793.11401"
         x="114.75345"
         height="13.532736"
         width="24.632736"
         id="rect4060-3"
         style="fill:#ffffff;fill-opacity:1;stroke:none" />
      <path
         sodipodi:nodetypes="ccc"
         id="path3879"
         d="m 222.91615,904.57131 c 3.32368,-22.0244 -18.43761,-41.81662 -18.43761,-41.81662 0,0 15.41863,18.59637 18.43761,41.81662 z"
         style="opacity:0.7;fill:#000000;fill-opacity:1;stroke:#000000;stroke-width:0.60537583;stroke-linecap:butt;stroke-linejoin:miter;stroke-miterlimit:4;stroke-opacity:1;stroke-dasharray:none" />
      <path
         sodipodi:nodetypes="csc"
         inkscape:original-d="m 144.69507,850.63041 c 0,0 70.91667,-21.33333 41.25,28.33335 -29.66667,49.66666 -30,66.66666 -30,66.66666"
         inkscape:path-effect="#path-effect4146"
         id="path4144"
         d="m 144.69507,850.63041 c 8.74495,0.53527 17.32946,3.49003 24.55128,8.45048 7.22182,4.96044 13.06063,11.91262 16.69872,19.88287 5.7261,12.54463 5.76631,27.55658 0.1075,40.13171 -5.6588,12.57512 -16.92103,22.50098 -30.1075,26.53495"
         style="fill:none;stroke:#000000;stroke-width:1.25;stroke-linecap:butt;stroke-linejoin:miter;stroke-miterlimit:4;stroke-opacity:1;stroke-dasharray:none" />
      <rect
         y="753.96997"
         x="1.6078033"
         height="296.78439"
         width="296.78439"
         id="rect3987"
         style="opacity:0.8;fill:url(#linearGradient4696);fill-opacity:1;stroke:#000000;stroke-width:3.21561551;stroke-miterlimit:4;stroke-opacity:1;stroke-dasharray:none;stroke-dashoffset:0" />
      <text
         id="text2816"
         y="983.63049"
         x="34.810547"
         style="font-size:64px;font-style:normal;font-variant:normal;font-weight:normal;font-stretch:normal;fill:#000080;fill-opacity:1;stroke:none;font-family:Arial;-inkscape-font-specification:Calibri"
         xml:space="preserve"><tspan
           style="font-size:72px;font-style:normal;font-variant:normal;font-weight:bold;font-stretch:normal;fill:#000080;fill-opacity:1;font-family:Calibri;-inkscape-font-specification:Calibri Bold"
           y="983.63049"
           x="34.810547"
           id="tspan2818"
           sodipodi:role="line">MiToBo</tspan></text>
      <text
         transform="scale(1.0635122,0.9402807)"
         id="text2854-6"
         y="1072.7345"
         x="35.882893"
         style="font-size:70.4122467px;font-style:normal;font-variant:normal;font-weight:bold;font-stretch:normal;fill:#000000;fill-opacity:1;stroke:none;font-family:Calibri;-inkscape-font-specification:Calibri Bold"
         xml:space="preserve"><tspan
           style="font-size:22.75875282px;font-style:normal;font-variant:normal;font-weight:normal;font-stretch:normal;font-family:Century Gothic;-inkscape-font-specification:Century Gothic"
           y="1072.7345"
           x="35.882893"
           id="tspan2856-7"
           sodipodi:role="line"><tspan
             id="tspan2876-3"
             style="font-size:22.75875282px;font-weight:bold;-inkscape-font-specification:Century Gothic Bold">m<tspan
   id="tspan4732"
   style="font-weight:normal;fill:#4d4d4d;fill-opacity:1;-inkscape-font-specification:Century Gothic">i</tspan></tspan><tspan
             id="tspan5086-6"
             style="font-size:22.75875282px;fill:#4d4d4d">croscope <tspan
   id="tspan4734"
   style="font-weight:bold;fill:#000000;-inkscape-font-specification:Adobe Arabic Bold">i</tspan>mage</tspan></tspan><tspan
           id="tspan3165"
           style="font-size:22.75875282px;font-style:normal;font-variant:normal;font-weight:normal;font-stretch:normal;font-family:Century Gothic;-inkscape-font-specification:Century Gothic"
           y="1101.183"
           x="35.882893"
           sodipodi:role="line" /></text>
      <text
         xml:space="preserve"
         style="font-size:71.43165588px;font-style:normal;font-variant:normal;font-weight:bold;font-stretch:normal;fill:#000000;fill-opacity:1;stroke:none;font-family:Calibri;-inkscape-font-specification:Calibri Bold"
         x="53.232353"
         y="1097.1416"
         id="text3772"
         transform="scale(1.0635122,0.9402807)"><tspan
           sodipodi:role="line"
           id="tspan3774"
           x="53.232353"
           y="1097.1416"
           style="font-size:23.08824921px;font-style:normal;font-variant:normal;font-weight:normal;font-stretch:normal;font-family:Century Gothic;-inkscape-font-specification:Century Gothic"><tspan
             id="tspan4554"
             style="fill:#4d4d4d;fill-opacity:1">analysis</tspan><tspan
             id="tspan4568"
             style="font-weight:bold;-inkscape-font-specification:Century Gothic Bold"> to</tspan><tspan
             id="tspan4560"
             style="fill:#4d4d4d;fill-opacity:1">ol</tspan><tspan
             id="tspan4570"
             style="font-weight:bold;-inkscape-font-specification:Century Gothic Bold">bo</tspan><tspan
             id="tspan4566"
             style="fill:#4d4d4d;fill-opacity:1">x</tspan></tspan><tspan
           sodipodi:role="line"
           x="53.232353"
           y="1126.002"
           style="font-size:23.08824921px;font-style:normal;font-variant:normal;font-weight:normal;font-stretch:normal;font-family:Century Gothic;-inkscape-font-specification:Century Gothic"
           id="tspan3780" /></text>
      <path
         id="path4578"
         d="M 39.244725,985.88525 8.094196,1039.8393"
         style="fill:none;stroke:#000000;stroke-width:1.04570615px;stroke-linecap:butt;stroke-linejoin:miter;stroke-opacity:1" />
      <path
         style="fill:none;stroke:#000000;stroke-width:1.04570615px;stroke-linecap:butt;stroke-linejoin:miter;stroke-opacity:1"
         d="M 291.9058,1039.8393 260.75527,985.88507"
         id="path4580" />
      <path
         id="path4582"
         d="m 7.7608263,1039.8622 284.4783437,0"
         style="fill:none;stroke:#000000;stroke-width:1.00977385;stroke-linecap:butt;stroke-linejoin:miter;stroke-miterlimit:4;stroke-opacity:1;stroke-dasharray:none" />
    </g>
  </g>
</svg>
